<?xml version="1.0" encoding="utf-8"?>
<!-- Generator: Adobe Illustrator 25.0.0, SVG Export Plug-In . SVG Version: 6.00 Build 0)  -->
<svg version="1.1" id="Victors" xmlns="http://www.w3.org/2000/svg" xmlns:xlink="http://www.w3.org/1999/xlink" x="0px" y="0px"
	 viewBox="0 0 869.2 801.8" style="enable-background:new 0 0 869.2 801.8;" xml:space="preserve">
<style type="text/css">
	.st0{fill:none;}
	.st1{fill:none;stroke:#000001;stroke-linecap:round;stroke-linejoin:round;stroke-miterlimit:10;}
	.st2{fill:#FFFFFF;}
	.st3{fill:url(#SVGID_1_);}
	.st4{fill:url(#SVGID_2_);}
	.st5{fill:url(#SVGID_3_);}
	.st6{fill:url(#SVGID_4_);}
	.st7{fill:url(#SVGID_5_);}
	.st8{fill:url(#SVGID_6_);}
	.st9{fill:url(#SVGID_7_);}
	.st10{fill:url(#SVGID_8_);}
	.st11{fill:url(#SVGID_9_);}
	.st12{fill:url(#SVGID_10_);}
	.st13{clip-path:url(#SVGID_12_);}
	.st14{fill:url(#Path_2926_1_);}
	.st15{opacity:0.3;fill:url(#Path_2927_1_);enable-background:new    ;}
	.st16{fill:url(#Path_2928_1_);}
	.st17{opacity:0.3;fill:url(#Path_2929_1_);enable-background:new    ;}
	.st18{opacity:0.3;fill:#93DEFB;enable-background:new    ;}
	.st19{fill:url(#Path_2931_1_);}
	.st20{fill:url(#Path_2932_1_);}
	.st21{fill:#93DEFB;}
	.st22{fill:#46BFD0;}
	.st23{fill:#441CD4;}
	.st24{fill:#E3C8FA;}
	.st25{fill:#AE46E6;}
	.st26{fill:#7D7FDC;}
	.st27{fill:url(#SVGID_13_);}
	.st28{fill:url(#SVGID_14_);}
	.st29{fill:url(#SVGID_15_);}
	.st30{fill:url(#SVGID_16_);}
	.st31{fill:url(#SVGID_17_);}
	.st32{fill:url(#SVGID_18_);}
	.st33{fill:url(#SVGID_19_);}
	.st34{fill:url(#SVGID_20_);}
	.st35{fill:url(#SVGID_21_);}
	.st36{fill:url(#SVGID_22_);}
	.st37{fill:url(#SVGID_23_);}
	.st38{fill:url(#SVGID_24_);}
	.st39{fill:url(#SVGID_25_);}
	.st40{fill:url(#SVGID_26_);}
	.st41{fill:url(#SVGID_27_);}
	.st42{fill:url(#SVGID_28_);}
	.st43{opacity:0.68;}
	.st44{fill:url(#SVGID_29_);}
	.st45{opacity:0.18;}
	.st46{fill:#5F7FA8;}
	.st47{fill:url(#SVGID_30_);}
	.st48{opacity:0.3;enable-background:new    ;}
	.st49{fill:url(#SVGID_31_);}
</style>
<pattern  y="801.8" width="98.2" height="96.4" patternUnits="userSpaceOnUse" id="Nova_amostra_de_padrão_1" viewBox="115.1 -96.4 98.2 96.4" style="overflow:visible;">
	<g>
		<rect x="115.1" y="-96.4" class="st0" width="98.2" height="96.4"/>
		<g>
			<line class="st1" x1="196.8" y1="-72.1" x2="327.8" y2="-72.1"/>
			<line class="st1" x1="196.8" y1="-48.2" x2="327.8" y2="-48.2"/>
			<line class="st1" x1="196.8" y1="-24.4" x2="327.8" y2="-24.4"/>
			<line class="st1" x1="196.8" y1="-0.5" x2="327.8" y2="-0.5"/>
		</g>
		<g>
			<line class="st1" x1="98.7" y1="-72.1" x2="229.7" y2="-72.1"/>
			<line class="st1" x1="98.7" y1="-48.2" x2="229.7" y2="-48.2"/>
			<line class="st1" x1="98.7" y1="-24.4" x2="229.7" y2="-24.4"/>
			<line class="st1" x1="98.7" y1="-0.5" x2="229.7" y2="-0.5"/>
		</g>
		<g>
			<line class="st1" x1="0.5" y1="-72.1" x2="131.5" y2="-72.1"/>
			<line class="st1" x1="0.5" y1="-48.2" x2="131.5" y2="-48.2"/>
			<line class="st1" x1="0.5" y1="-24.4" x2="131.5" y2="-24.4"/>
			<line class="st1" x1="0.5" y1="-0.5" x2="131.5" y2="-0.5"/>
		</g>
	</g>
</pattern>
<pattern  y="801.8" width="27.8" height="27.8" patternUnits="userSpaceOnUse" id="Unnamed_Pattern_4" viewBox="1.3 -29.2 27.8 27.8" style="overflow:visible;">
	<g>
		<rect x="1.3" y="-29.2" class="st0" width="27.8" height="27.8"/>
		<g>
			<path class="st2" d="M30.5-1.3c0,0.7-0.6,1.3-1.3,1.3c-0.7,0-1.3-0.6-1.3-1.3c0-0.7,0.6-1.3,1.3-1.3C29.9-2.7,30.5-2.1,30.5-1.3z
				"/>
		</g>
		<g>
			<path class="st2" d="M2.7-1.3C2.7-0.6,2.1,0,1.3,0C0.6,0,0-0.6,0-1.3c0-0.7,0.6-1.3,1.3-1.3C2.1-2.7,2.7-2.1,2.7-1.3z"/>
			<path class="st2" d="M9.6-1.3C9.6-0.6,9,0,8.3,0C7.6,0,7-0.6,7-1.3c0-0.7,0.6-1.3,1.3-1.3C9-2.7,9.6-2.1,9.6-1.3z"/>
			<path class="st2" d="M9.6-1.3C9.6-0.6,9,0,8.3,0C7.6,0,7-0.6,7-1.3c0-0.7,0.6-1.3,1.3-1.3C9-2.7,9.6-2.1,9.6-1.3z"/>
			<path class="st2" d="M16.6-1.3C16.6-0.6,16,0,15.3,0c-0.7,0-1.3-0.6-1.3-1.3c0-0.7,0.6-1.3,1.3-1.3C16-2.7,16.6-2.1,16.6-1.3z"/>
			<path class="st2" d="M16.6-1.3C16.6-0.6,16,0,15.3,0c-0.7,0-1.3-0.6-1.3-1.3c0-0.7,0.6-1.3,1.3-1.3C16-2.7,16.6-2.1,16.6-1.3z"/>
			<path class="st2" d="M23.5-1.3c0,0.7-0.6,1.3-1.3,1.3c-0.7,0-1.3-0.6-1.3-1.3c0-0.7,0.6-1.3,1.3-1.3C22.9-2.7,23.5-2.1,23.5-1.3z
				"/>
			<path class="st2" d="M23.5-1.3c0,0.7-0.6,1.3-1.3,1.3c-0.7,0-1.3-0.6-1.3-1.3c0-0.7,0.6-1.3,1.3-1.3C22.9-2.7,23.5-2.1,23.5-1.3z
				"/>
			<path class="st2" d="M30.5-1.3c0,0.7-0.6,1.3-1.3,1.3c-0.7,0-1.3-0.6-1.3-1.3c0-0.7,0.6-1.3,1.3-1.3C29.9-2.7,30.5-2.1,30.5-1.3z
				"/>
		</g>
		<g>
			<path class="st2" d="M2.7-1.3C2.7-0.6,2.1,0,1.3,0C0.6,0,0-0.6,0-1.3c0-0.7,0.6-1.3,1.3-1.3C2.1-2.7,2.7-2.1,2.7-1.3z"/>
		</g>
		<g>
			<path class="st2" d="M30.5-29.2c0,0.7-0.6,1.3-1.3,1.3c-0.7,0-1.3-0.6-1.3-1.3c0-0.7,0.6-1.3,1.3-1.3
				C29.9-30.5,30.5-29.9,30.5-29.2z"/>
			<circle class="st2" cx="29.2" cy="-20.3" r="1.3"/>
			<circle class="st2" cx="29.2" cy="-9.9" r="1.3"/>
		</g>
		<g>
			<path class="st2" d="M2.7-29.2c0,0.7-0.6,1.3-1.3,1.3c-0.7,0-1.3-0.6-1.3-1.3c0-0.7,0.6-1.3,1.3-1.3C2.1-30.5,2.7-29.9,2.7-29.2z
				"/>
			<path class="st2" d="M9.6-29.2c0,0.7-0.6,1.3-1.3,1.3c-0.7,0-1.3-0.6-1.3-1.3c0-0.7,0.6-1.3,1.3-1.3C9-30.5,9.6-29.9,9.6-29.2z"
				/>
			<path class="st2" d="M9.6-29.2c0,0.7-0.6,1.3-1.3,1.3c-0.7,0-1.3-0.6-1.3-1.3c0-0.7,0.6-1.3,1.3-1.3C9-30.5,9.6-29.9,9.6-29.2z"
				/>
			<path class="st2" d="M16.6-29.2c0,0.7-0.6,1.3-1.3,1.3c-0.7,0-1.3-0.6-1.3-1.3c0-0.7,0.6-1.3,1.3-1.3
				C16-30.5,16.6-29.9,16.6-29.2z"/>
			<path class="st2" d="M16.6-29.2c0,0.7-0.6,1.3-1.3,1.3c-0.7,0-1.3-0.6-1.3-1.3c0-0.7,0.6-1.3,1.3-1.3
				C16-30.5,16.6-29.9,16.6-29.2z"/>
			<path class="st2" d="M23.5-29.2c0,0.7-0.6,1.3-1.3,1.3c-0.7,0-1.3-0.6-1.3-1.3c0-0.7,0.6-1.3,1.3-1.3
				C22.9-30.5,23.5-29.9,23.5-29.2z"/>
			<path class="st2" d="M23.5-29.2c0,0.7-0.6,1.3-1.3,1.3c-0.7,0-1.3-0.6-1.3-1.3c0-0.7,0.6-1.3,1.3-1.3
				C22.9-30.5,23.5-29.9,23.5-29.2z"/>
			<path class="st2" d="M30.5-29.2c0,0.7-0.6,1.3-1.3,1.3c-0.7,0-1.3-0.6-1.3-1.3c0-0.7,0.6-1.3,1.3-1.3
				C29.9-30.5,30.5-29.9,30.5-29.2z"/>
			<circle class="st2" cx="1.3" cy="-20.3" r="1.3"/>
			<circle class="st2" cx="8.3" cy="-20.3" r="1.3"/>
			<circle class="st2" cx="8.3" cy="-20.3" r="1.3"/>
			<circle class="st2" cx="15.3" cy="-20.3" r="1.3"/>
			<circle class="st2" cx="15.3" cy="-20.3" r="1.3"/>
			<circle class="st2" cx="22.2" cy="-20.3" r="1.3"/>
			<circle class="st2" cx="22.2" cy="-20.3" r="1.3"/>
			<path class="st2" d="M30.5-20.3c0,0.7-0.6,1.3-1.3,1.3c-0.7,0-1.3-0.6-1.3-1.3c0-0.7,0.6-1.3,1.3-1.3
				C29.9-21.7,30.5-21.1,30.5-20.3z"/>
			<circle class="st2" cx="1.3" cy="-9.9" r="1.3"/>
			<circle class="st2" cx="8.3" cy="-9.9" r="1.3"/>
			<circle class="st2" cx="8.3" cy="-9.9" r="1.3"/>
			<circle class="st2" cx="15.3" cy="-9.9" r="1.3"/>
			<circle class="st2" cx="15.3" cy="-9.9" r="1.3"/>
			<circle class="st2" cx="22.2" cy="-9.9" r="1.3"/>
			<circle class="st2" cx="22.2" cy="-9.9" r="1.3"/>
			<path class="st2" d="M30.5-9.9c0,0.7-0.6,1.3-1.3,1.3c-0.7,0-1.3-0.6-1.3-1.3c0-0.7,0.6-1.3,1.3-1.3
				C29.9-11.3,30.5-10.7,30.5-9.9z"/>
		</g>
		<g>
			<path class="st2" d="M2.7-29.2c0,0.7-0.6,1.3-1.3,1.3c-0.7,0-1.3-0.6-1.3-1.3c0-0.7,0.6-1.3,1.3-1.3C2.1-30.5,2.7-29.9,2.7-29.2z
				"/>
			<path class="st2" d="M2.7-20.3c0,0.7-0.6,1.3-1.3,1.3C0.6-19,0-19.6,0-20.3c0-0.7,0.6-1.3,1.3-1.3C2.1-21.7,2.7-21.1,2.7-20.3z"
				/>
			<path class="st2" d="M2.7-9.9c0,0.7-0.6,1.3-1.3,1.3C0.6-8.6,0-9.2,0-9.9c0-0.7,0.6-1.3,1.3-1.3C2.1-11.3,2.7-10.7,2.7-9.9z"/>
		</g>
	</g>
</pattern>
<linearGradient id="SVGID_1_" gradientUnits="userSpaceOnUse" x1="630.7416" y1="769.4327" x2="798.7485" y2="601.4257">
	<stop  offset="0" style="stop-color:#93DEFB"/>
	<stop  offset="0.651" style="stop-color:#EA9898"/>
	<stop  offset="0.998" style="stop-color:#C7F2E3"/>
</linearGradient>
<path class="st3" d="M736.9,577.1c-47.6,0-86.2,38.6-86.2,86.2c0,47.6,38.6,86.2,86.2,86.2c47.6,0,86.2-38.6,86.2-86.2
	C823.1,615.7,784.5,577.1,736.9,577.1z M736.9,744c-44.6,0-80.7-36.1-80.7-80.7s36.1-80.7,80.7-80.7c44.6,0,80.7,36.1,80.7,80.7
	S781.4,744,736.9,744z"/>
<g>
	<linearGradient id="SVGID_2_" gradientUnits="userSpaceOnUse" x1="422.6221" y1="237.2285" x2="869.3439" y2="237.2285">
		<stop  offset="0" style="stop-color:#93DEFB"/>
		<stop  offset="0.651" style="stop-color:#EBADF8"/>
		<stop  offset="0.998" style="stop-color:#C7F2E3"/>
	</linearGradient>
	<path class="st4" d="M869,200.6c-2.2-20.8-15.5-45.2-36.5-67C813,113.4,789.9,98.2,770.6,93c-57-15.4-80.6,10.5-117.4,57.5
		c-2.9,3.7-5.7,7.4-8.4,10.9c-16.3,21.3-30.4,39.7-50.5,50.2c-22,11.6-48.9,12.2-84.9,1.8c-22.3-6.4-40.9-4.2-55.1,6.4
		c-30.4,22.7-31.2,77-31.2,78.1c-2,39.5,4.6,66.1,19.6,78.9c7.1,6.1,16,9.1,26.9,9.1c5,0,10.4-0.6,16.3-1.9c8.5-1.8,17-9.3,26-17.2
		c18-15.8,38.4-33.7,67.3-16.4c16.9,10.1,34.5,12.6,51.1,7c20.4-6.8,38.4-25.4,48.2-49.7c3.3-8.1,7.1-14.1,11.5-18.6
		c1.1-0.4,2.2-0.9,3.3-1.3c1.4-0.5,2.8-1,4.3-1.5c2.4-0.8,4.9-1.6,7.5-2.4c2-0.6,4-1.1,6.1-1.6c1.9-0.5,3.9-0.9,5.9-1.4
		c1.8-0.4,3.7-0.7,5.6-1.1c1.8-0.3,3.6-0.6,5.4-0.9c0.7-0.1,1.4-0.2,2-0.3c1.1-0.2,2.1-0.3,3.2-0.5c1.7-0.2,3.4-0.4,5.1-0.6
		c1.6-0.2,3.2-0.3,4.9-0.5c1.6-0.1,3.2-0.3,4.9-0.4c1.5-0.1,3.1-0.2,4.7-0.3c1.5-0.1,3.1-0.2,4.6-0.3c22-0.8,48-4.2,78.3-19.9
		C860.1,243.6,871.6,224.4,869,200.6z M758.9,251.1c3.5-7.9,0.7-18.2-7.3-26.3c-4.2-4.2-11.7-9.7-23.5-11.5
		c-10.9-1.7-22.7,0.3-35.1,5.8c-20.4,9-32.1,17.3-41.6,24.8c-0.8,0.6-1.6,1.2-2.3,1.8c-13.3,10.5-23,18.2-51.5,20.4
		c-6.8,0.5-13.7,1.8-21,3.1c-5,0.9-10.1,1.9-15.6,2.7c-0.2,0-0.5,0-0.7,0c2.5-0.6,5-1.3,7.4-2c8.8-2.5,17.2-4.8,26.5-5
		c30.4-0.8,40.6-9.4,54.8-21.4c1-0.8,1.9-1.6,3-2.5c11.3-9.5,23.2-17.5,44.3-25.9c17.8-7,42.5-8.6,58.7,8.2
		c7.9,8.2,10.8,18.5,7.4,26.3c-2.1,4.7-6.2,8.1-12,10C755.4,257.1,757.8,253.7,758.9,251.1z M746.5,260.2c3.7-1.8,6.5-4.5,8.1-7.9
		c3.5-7.6,0.6-17.8-7.2-25.3c-5-4.9-24.1-19.5-57.4-3c-19.6,9.8-30.6,17.7-39.5,24c-17.6,12.7-27,19.5-81,23.3
		c2.4-0.4,4.8-0.9,7.2-1.3c7.3-1.3,14.1-2.6,20.9-3.1c28.8-2.2,38.5-9.9,51.9-20.5c0.8-0.6,1.5-1.2,2.3-1.8
		c11-8.6,22.3-16.2,41.5-24.7c17.5-7.8,41.8-10.4,57.6,5.5c7.8,7.8,10.6,17.7,7.2,25.3C756.2,255.3,752.2,258.5,746.5,260.2z
		 M763.2,249.9c3.5-8.1,0.6-18.8-7.6-27.2c-4.3-4.5-12-10.3-24-12.6c-11.1-2.1-23.1-0.7-35.6,4.2c-21.3,8.4-33.2,16.5-44.6,26
		c-1,0.8-2,1.7-3,2.5c-14,11.9-24.2,20.5-54.3,21.3c-9.5,0.2-17.9,2.6-26.7,5.1c-3.8,1.1-7.6,2.1-11.7,3.1c-0.2,0-0.4,0-0.6,0
		c-0.5,0-1.1,0.1-1.6,0.1c2.3-0.8,4.6-1.7,6.8-2.5c9.2-3.5,18.8-7.1,30.4-6.9c0.8,0,1.6,0,2.3,0c30.4,0,41.6-10,55.6-22.6
		c1.1-1,2.2-2,3.3-3c11.9-10.5,24.4-19.1,47.2-27.1c27.5-9.7,48.9-0.8,59.7,10.8c8.1,8.6,11.1,19.4,7.6,27.4
		c-2.2,5-6.6,8.7-12.9,10.8C758.2,257.1,761.4,254,763.2,249.9z M767.4,248.7c3.6-8.3,0.5-19.4-7.8-28.3
		c-6.3-6.7-14.8-11.5-24.5-13.7c-11.3-2.6-23.5-1.7-36.1,2.7c-22.9,8.1-35.6,16.7-47.5,27.3c-1.1,1-2.2,2-3.3,3
		c-14.3,12.8-25.5,22.9-57.4,22.3c-11.8-0.2-21.4,3.5-30.7,7c-3.2,1.2-6.4,2.4-9.7,3.5c-1,0.1-2,0.2-3.1,0.2c2.1-0.9,4.2-1.9,6.3-3
		c9.8-4.7,19.8-9.6,33.7-8.9c34,1.7,46-9.5,61.2-23.8c1.2-1.1,2.4-2.2,3.6-3.3c12.9-11.9,25.7-20.8,50.1-28.4
		c27.9-8.7,49.6,1.2,60.7,13.4c8.4,9.2,11.4,20.1,7.9,28.5c-2.2,5.4-7,9.3-13.8,11.6C761.9,256.5,765.5,253.1,767.4,248.7z
		 M771.6,247.5c3.6-8.7,0.6-19.9-8-29.4c-11.2-12.3-33.3-22.4-61.5-13.6c-24.5,7.6-37.5,16.6-50.4,28.6c-1.2,1.1-2.4,2.2-3.6,3.3
		c-15,14.1-26.9,25.2-60.6,23.5c-14-0.7-24.2,4.2-34.1,9c-2.9,1.4-5.7,2.8-8.6,4c-0.1,0-0.2,0-0.3,0c1.9-1.1,3.8-2.3,5.8-3.5
		c9-5.6,19.2-11.9,33.7-10.7c35.9,2.8,48.5-9.5,64.4-25c1.2-1.2,2.5-2.4,3.8-3.7c14-13.4,27.1-22.6,53-29.6
		c28.2-7.7,50.3,3.1,61.6,15.9c8.5,9.6,11.7,21,8.1,29.6c-2.3,5.7-7.5,10-14.9,12.4C765.6,256,769.6,252.3,771.6,247.5z
		 M775.7,246.4c3.6-8.9,0.5-20.6-8.3-30.5c-11.5-12.9-33.9-23.9-62.5-16.1c-26.1,7.1-39.3,16.3-53.3,29.8c-1.3,1.2-2.6,2.5-3.8,3.7
		c-15.8,15.4-28.2,27.5-63.8,24.8c-14.8-1.1-25.1,5.2-34.2,10.9c-2.5,1.6-5,3.1-7.5,4.4c-1.4,0.2-2.7,0.3-4,0.5
		c1.8-1.2,3.7-2.6,5.7-4c9.4-6.8,20-14.6,36.6-12.9c37.9,3.8,51-9.5,67.7-26.3c1.3-1.3,2.6-2.6,4-4c14.8-14.6,28.6-24.4,55.9-30.9
		c28.5-6.8,51,5,62.6,18.4c8.7,10.1,11.9,21.9,8.4,30.8c-1.9,4.8-6.4,10.5-16.6,13.6C769,255.9,773.5,251.8,775.7,246.4z
		 M779.9,245.2c3.7-9.2,0.4-21.3-8.5-31.7C759.7,200,736.9,188,708,194.9c-27.4,6.5-41.4,16.4-56.3,31.1c-1.4,1.3-2.7,2.7-4,4
		c-8.4,8.5-15.7,15.8-25.7,20.7c-11,5.4-24.1,7-41.3,5.3c-16.9-1.7-27.7,6.2-37.2,13.1c-2.5,1.8-4.8,3.5-7.2,5
		c-1.5,0.2-2.9,0.4-4.3,0.7c1.9-1.4,3.8-3,5.8-4.7c9.2-7.8,20.6-17.5,39.4-15.2c39.8,4.8,53.6-9.5,71-27.5c1.4-1.4,2.7-2.8,4.2-4.3
		c16-16.3,30.1-26.2,58.8-32.1c28.8-5.9,51.7,6.9,63.5,20.8c9.1,10.7,12.3,22.7,8.6,32.1c-2.6,6.7-8.5,11.5-17.1,14.3
		C774.3,254.7,778.1,249.6,779.9,245.2z M537.7,274.7c-0.4,0.1-0.7,0.1-1.1,0.2c0,0,0,0,0,0C537,274.8,537.3,274.7,537.7,274.7z
		 M534.4,275.2c-0.1,0-0.1,0.1-0.2,0.1c-1.4,0.2-2.7,0.5-4,0.8c0.1-0.1,0.2-0.1,0.2-0.2C531.8,275.6,533.1,275.4,534.4,275.2z
		 M784,244c3.8-9.6,0.5-21.9-8.8-32.9C763.3,197,740.2,184,711,190c-28.9,5.9-43.1,16-59.2,32.4c-1.4,1.4-2.8,2.9-4.2,4.3
		c-17.3,17.9-31,32-70.3,27.3c-19.1-2.3-30.7,7.5-40,15.4c-2.5,2.1-4.8,4.1-7.1,5.7c-1.6,0.3-3.1,0.6-4.6,0.9c2-1.6,4-3.6,6.1-5.6
		c9.4-9.1,21.1-20.5,42.1-17.6c41.7,5.8,56.1-9.5,74.3-28.8c1.4-1.5,2.9-3,4.3-4.6c17.2-18,31.5-28.1,61.6-33.4
		c29.2-5.1,52.9,9.4,64.4,23.3c9.3,11.2,12.6,23.7,8.9,33.3c-2.7,7.2-9.1,12.4-18.5,15.4C778.1,254.3,782.2,248.7,784,244z
		 M490.1,305.9c0.4-0.6,0.7-1.1,1.1-1.7c0,0,0,0,0,0C490.8,304.8,490.5,305.4,490.1,305.9z M490.3,309.7c-0.1,2.1,0.5,4.3,1.7,6.6
		c3.6,6.9,14.5,11.1,30.3,12.2c-16.5-0.7-26.2-3.8-29.9-9.6C490.2,315.7,489.6,312.8,490.3,309.7z M484.7,318.5
		c0.2,4.3,2.6,7.2,6.2,10.3c5.9,5,17.5,4.3,32.1,3.4c2-0.1,4.1-0.2,6.2-0.4c-3.6,0.3-7.1,0.6-10.4,1c-12.4,1.2-22.2,2.2-27.7-1.6
		c-3.5-2.4-6.9-5.2-7.5-9.8c-0.6-5.1,2.3-12.1,9-21.6c-0.3,0.8-0.6,1.5-0.9,2.3C486.8,308.8,484.5,314.2,484.7,318.5z M522.9,331.3
		c-14.4,0.9-25.8,1.6-31.5-3.2c-3.4-2.9-5.8-5.7-5.9-9.7c-0.1-3.1,1.1-6.8,3.8-11.2c-1.8,3.1-2.8,5.9-2.9,8.3
		c-0.2,4.4,2.3,7.6,4.7,10.1c6.1,6.2,19.5,6,36.6,5.4C526.1,331.2,524.5,331.3,522.9,331.3z M491.7,325.1c-2.5-2.5-4.7-5.4-4.5-9.5
		c0.1-1.4,0.4-2.8,1.1-4.4c-0.1,0.5-0.2,0.9-0.3,1.4c-0.6,4.3,1.5,7.6,3.4,10c5.4,6.7,18.5,7.9,34.7,7.8
		C510,330.8,497.4,330.9,491.7,325.1z M492.1,322c-2.7-3.4-3.7-6.2-3.2-9.4c0.1-0.6,0.2-1.2,0.4-1.9c-0.3,2.9,0.4,5.6,2.4,8.7
		c4.9,7.4,18.2,9.7,32.3,10C509,329.5,497,328.2,492.1,322z M492.7,316c-1.3-2.5-1.8-4.8-1.6-7c0.2,1.5,0.5,2.9,1.1,4.3
		c3.6,8.8,16.7,13.3,30.7,14.6C507.2,326.8,496.2,322.7,492.7,316z M493,312.9c-0.9-2.2-1.3-4.4-1.2-6.7c0.1,1.5,0.3,2.8,0.7,3.9
		c2.6,8.2,13.4,14.4,27.1,16.5C506.1,324.9,495.9,320,493,312.9z M492.7,306c0.1,0.3,0.1,0.7,0.2,1c1.9,8.3,11.5,15.2,23.7,18.2
		c-11.8-2.5-21-8.2-23.2-15.3C493,308.8,492.7,307.5,492.7,306z M493.6,306.8c-0.1-0.6-0.2-1.1-0.3-1.7c2.1,9,12.8,16.7,25.3,19.7
		C505.9,322.2,495.5,315.4,493.6,306.8z M494,303.8C494,303.8,494,303.8,494,303.8c0.6,2.2,1.7,4.6,3.4,6.8
		c4,5.5,10.4,9.8,17.5,12.3C503.9,319.4,495.1,312.1,494,303.8z M494.3,300.1c2.9-3.6,6.4-7.7,10.7-12.2c1.3-0.8,2.6-1.6,4.2-2.4
		c-6.3,5.6-11.3,10.5-14.9,14.8C494.3,300.3,494.3,300.2,494.3,300.1z M510.1,281.7c-0.3,0.3-0.6,0.6-0.9,0.9
		c-2,0.9-3.7,1.9-5.2,2.9c0.3-0.4,0.7-0.8,1-1.2C506.5,283.4,508.3,282.5,510.1,281.7z M506.5,282.6c0.1-0.1,0.1-0.1,0.2-0.2
		c0.1,0,0.2,0,0.3,0C506.8,282.4,506.6,282.5,506.5,282.6z M514.1,281.4c-0.1,0.1-0.2,0.1-0.3,0.2c-1.6,0.6-3.1,1.3-4.5,2
		c0.1-0.1,0.2-0.2,0.3-0.3C511,282.6,512.5,282,514.1,281.4z M511.3,281.6c0.1-0.1,0.1-0.1,0.2-0.2c0.1,0,0.2,0,0.3,0
		C511.7,281.5,511.5,281.6,511.3,281.6z M507.3,284.5c-0.1,0.1-0.3,0.3-0.4,0.4c-2.1,1.2-3.9,2.3-5.4,3.5c0.1-0.1,0.2-0.2,0.3-0.3
		C503.3,286.8,505.1,285.6,507.3,284.5z M501.2,287.4c-1.9,1.5-3.3,2.9-4.4,4.3c1.4-2.1,3.3-4,5.6-5.7
		C502,286.5,501.6,287,501.2,287.4z M501.7,290.3c-2.8,3-5.3,5.9-7.4,8.5c0,0,0-0.1,0-0.1c0.3-0.6,0.6-1.1,0.9-1.7
		c0.2-0.4,0.5-0.7,0.7-1.1C497.3,294.1,499.2,292.2,501.7,290.3z M512,284.3c1.1-0.5,2.2-1,3.4-1.5c-5.3,3.9-9.7,7.4-13.4,10.7
		c-0.1,0.1-0.2,0.1-0.3,0.2C504.6,290.8,508.1,287.6,512,284.3z M518.3,281.7c0.9-0.3,1.8-0.6,2.7-0.9c-3.9,2.4-7.3,4.6-10.5,6.7
		C513,285.6,515.6,283.7,518.3,281.7z M516.4,280.6C516.4,280.5,516.4,280.5,516.4,280.6c0.2,0,0.3-0.1,0.5-0.1
		c-0.2,0.1-0.4,0.2-0.7,0.2C516.2,280.7,516.3,280.6,516.4,280.6z M516.3,279.7c0.3-0.2,0.7-0.4,1-0.7c1.5-0.5,3-0.9,4.5-1.3
		c-0.3,0.2-0.6,0.4-0.9,0.5C519.3,278.7,517.8,279.2,516.3,279.7C516.3,279.7,516.3,279.7,516.3,279.7z M524.4,279.7
		c0.6-0.2,1.2-0.4,1.8-0.5c-2.2,1.1-4.3,2.2-6.3,3.2C521.4,281.5,522.9,280.6,524.4,279.7z M523.6,277.5c0.2-0.1,0.3-0.2,0.5-0.3
		c1.4-0.3,2.8-0.6,4.2-0.9c-0.1,0.1-0.3,0.2-0.4,0.2C526.4,276.8,525,277.2,523.6,277.5z M788.2,242.9c3.8-9.9,0.4-22.7-9-34.1
		c-11.6-14.1-35.6-28.7-65.2-23.6c-30.4,5.3-44.7,15.5-62.1,33.6c-1.5,1.5-2.9,3.1-4.3,4.6c-18.1,19.2-32.3,34.3-73.6,28.6
		c-21.3-3-33.2,8.6-42.8,17.8c-2.6,2.5-5,4.9-7.4,6.6c-1.7,0.4-3.3,0.8-4.8,1.3c2.1-1.8,4.3-4.2,6.7-6.9c9.1-10,21.6-23.7,44.8-20.1
		c6.8,1.1,12.9,1.5,18.5,1.5c29.9,0,43.1-14.3,59.1-31.6c1.5-1.6,3-3.2,4.5-4.9c18.2-19.4,33.1-30.1,64.5-34.6
		c17.6-2.6,35.6,1.8,50.7,12.3c13.5,9.4,22.8,22.4,24.8,34.7c2.3,14.4-5.4,25-21.4,29.9C781.7,254.1,786.2,247.9,788.2,242.9z
		 M788.5,248.3c4.5-5.5,6.2-12.5,4.9-20.3c-2-12.6-11.4-25.8-25.2-35.3c-15.3-10.6-33.5-15-51.3-12.4c-31.6,4.6-46.7,15.3-65,34.9
		c-1.5,1.6-3.1,3.3-4.5,4.9c-18.8,20.4-33.7,36.5-76.9,29.8c-23.6-3.6-36.3,10.2-45.5,20.4c-3,3.3-5.6,6.1-8.1,8
		c-1.9,0.6-3.7,1.3-5.4,2c2.6-2,5.2-5.2,8.2-8.9c9.2-11.4,21.9-27,47.4-22.7c45.6,7.7,61.2-9.6,80.9-31.4c1.5-1.7,3.1-3.4,4.7-5.2
		c19.5-21.3,34.6-32,67.4-35.9c37.4-4.4,72.5,23.9,76.7,50.3c2.4,15.1-5.9,26.4-23,31.5C780.1,255.8,785.1,252.5,788.5,248.3z
		 M797.6,226.4c-2.1-13-11.7-26.8-25.8-36.9c-15.6-11.2-34-16.2-51.9-14.1c-33.1,3.9-48.2,14.7-67.9,36.1c-1.6,1.8-3.2,3.5-4.7,5.2
		c-19.6,21.6-35,38.7-80.2,31.1c-26-4.4-38.8,11.5-48.1,23c-4.8,5.9-8.5,10.5-12.5,10.7l-0.2,0l-0.1,0.1c-0.6,0.7-1.2,1.4-1.8,2.1
		c-4.5,2.8-7.7,6-9.4,9.6c-0.5,1.1-0.9,2.2-1.1,3.4c-8.1,10.9-11.6,18.9-10.9,24.6c0.6,5,4.2,7.9,7.8,10.4c3.1,2.1,7.4,2.9,12.6,2.9
		c4.5,0,9.8-0.5,15.6-1.1c3.8-0.4,7.8-0.8,12.1-1.1c-5.3,0.5-10.3,1.2-15,1.9c-11.1,1.6-19.8,2.9-25.2-0.2c-4.3-2.4-8.2-5.1-9.1-10
		c-1.6-8,4.8-21,20.2-40.9c3.9-0.4,7.4-5.2,11.9-11.3c9.3-12.8,22.1-30.4,49.9-25.4c47.5,8.6,63.7-9.6,84.2-32.6
		c1.6-1.8,3.2-3.6,4.9-5.5c20.5-22.7,36.3-34.1,70.3-37.1c37.9-3.4,73.6,26.5,77.9,53.6c2.5,16-6.6,28-25.2,33.4
		C792,252.8,800,241.5,797.6,226.4z M801.7,224.8c-4.3-27.4-40.4-57.7-78.8-54.2c-34.3,3.1-50.2,14.5-70.8,37.4
		c-1.7,1.9-3.3,3.7-4.9,5.5c-20.3,22.8-36.4,40.9-83.4,32.4c-28.3-5.1-41.8,13.4-50.7,25.7c-4.4,6-7.8,10.8-11.4,11l-0.2,0l-0.1,0.1
		c-15.6,20.2-22.1,33.4-20.4,41.7c1,5.2,5.1,8,9.5,10.5c2.5,1.5,5.7,2,9.5,2c4.6,0,10-0.8,16.2-1.7c4.9-0.7,10.1-1.5,15.6-1.9
		c-6.3,0.7-12.3,1.9-17.8,2.9c-10.1,2-18.1,3.6-23.5,1.1c-5.1-2.4-9.5-4.8-10.9-10.1c-2.3-8.2,3.3-21.9,17.4-42.9
		c3.6-0.4,6.8-5.3,10.8-11.5c8.8-13.5,22.2-34,52.4-28.2c8.9,1.7,16.7,2.5,23.6,2.5c32,0,46.4-16.5,63.8-36.4
		c1.7-1.9,3.4-3.8,5.1-5.8c22-24.7,37.8-36.1,73.2-38.4c17.8-1.1,36.4,5,52.4,17.2c14.6,11.2,24.6,26,26.7,39.6
		c2.7,17.2-7.1,29.6-27.6,35.2C795.4,252.9,804.2,240.8,801.7,224.8z M805.8,223.3c-4.4-28.1-41-60-80-57.5
		c-35.5,2.3-52,14.3-73.8,38.6c-1.7,2-3.4,3.9-5.1,5.8c-21.1,24-37.7,43-86.7,33.6c-30.8-5.9-44.3,14.8-53.3,28.5
		c-4,6.1-7.1,10.9-10.4,11.1l-0.2,0l-0.1,0.2c-14.4,21.4-20,35.3-17.7,43.8c1.5,5.6,6.3,8.2,11.4,10.6c2.1,1,4.5,1.4,7.3,1.4
		c4.6,0,10.2-1.1,16.7-2.4c6.1-1.2,12.7-2.5,19.8-3.1c-7.9,0.9-15.2,2.7-21.4,4.3c-9.5,2.4-17,4.2-22.4,2.2
		c-5.9-2.2-10.9-4.5-12.8-10.1c-2.9-8.4,1.9-23.1,14.8-45c3.2-0.4,6-5.1,9.8-11.5c8.9-15,22.2-37.7,54.9-31.1
		c51.4,10.4,68.8-9.7,90.7-35.1c1.7-2,3.5-4,5.3-6.1c23.1-26.3,39.5-38.2,76.1-39.6c17.7-0.7,36.9,6.2,52.9,18.8
		c15,11.9,25.2,27.3,27.4,41.3c1.6,10.4-0.1,29-29.3,37c-0.3,0.1-0.7,0.2-1,0.3C798.7,253.2,808.5,240.3,805.8,223.3z M533.3,324.3
		c-12.9,1.8-28.1-4.3-35.3-14.2c-1.9-2.6-3.1-5.3-3.5-7.9c0.6-0.8,1.3-1.5,2.1-2.3c2.9-3,6.9-6.3,11.9-9.9c5.8-3.7,13-7.6,21.8-11.9
		c0.6-0.2,1.3-0.3,1.9-0.5c1.6-0.2,3.2-0.6,4.8-1.1c1.2-0.2,2.5-0.5,3.8-0.7c1.3-0.2,2.5-0.5,3.8-0.8c0.4,0,0.7-0.1,1.1-0.1
		c2.3-0.3,4.6-0.7,6.7-1.1c3.1-0.3,6-0.7,8.8-1.1c61.8-3.7,71.4-10.6,89.9-24c8.8-6.3,19.8-14.3,39.3-24c32.9-16.3,51.6-2,56.5,2.8
		c7.5,7.3,10.3,17.1,7,24.4c-2.1,4.5-6.2,7.6-11.9,9.1c-0.4,0-0.9,0.1-1.3,0.1c-0.1,0-0.3,0-0.4,0c-1.7,0-3.4,0.1-5.1,0.2
		c-0.1,0-0.2,0-0.4,0c-1.6,0-3.2,0.1-4.8,0.2c-1.7,0-3.4,0-5.1,0.1c-25.2-0.6-44.5,16.3-61.7,31.4c-7.5,6.6-14.6,12.8-21.6,17.3
		c-2.6,0.9-5.2,1.7-7.8,2.3c-1.5,0.3-3,0.6-4.4,0.7c-0.8,0.1-1.6,0.2-2.3,0.3c0,0,0,0-0.1,0c-1.4,0.1-2.8,0.2-4.2,0.3
		c-1.4,0-2.8,0-4.2,0.1c-1.4-0.1-2.8-0.1-4.2-0.1c-1.4-0.1-2.7-0.2-4.1-0.3c-1.5-0.2-2.9-0.4-4.3-0.5c-1.4-0.2-2.7-0.4-4.1-0.6
		c-18.9-4-32.3,0.8-45.4,5.4C549.2,320.5,541.7,323.2,533.3,324.3z M665.7,293.6c15.3-12.7,32.2-26.9,53.4-30.4
		c-20.4,4.7-37,17.8-51.9,29.7c-3.3,2.7-6.6,5.2-9.8,7.6C660.1,298.3,662.9,296,665.7,293.6z M653.7,302.4c3.3-2.8,6.7-5.7,10.1-8.7
		c14.7-12.9,31-27.2,51.2-30.5c-19.4,4.6-35.3,17.8-49.7,29.8C661.3,296.3,657.4,299.5,653.7,302.4z M667.7,293.5
		c15.9-12.6,33.6-26.6,55.7-30.4c-21.4,4.9-38.7,17.9-54.4,29.6c-2.8,2.1-5.4,4.1-8.1,6C663.1,297.1,665.4,295.3,667.7,293.5z
		 M669.5,293.5c16.5-12.4,35-26.3,58.1-30.3c-22.5,5.1-40.6,18-56.9,29.6c-2,1.5-4,2.9-6,4.3C666.3,295.9,667.9,294.7,669.5,293.5z
		 M671.2,293.4c17.2-12.3,36.5-26,60.9-30.3c-23.8,5.4-42.7,18.2-59.7,29.7c-1.2,0.8-2.3,1.6-3.5,2.4
		C669.6,294.6,670.4,294,671.2,293.4z M736.9,262.9c-25.3,5.7-45.2,18.5-63.1,29.9c-0.1,0.1-0.3,0.2-0.4,0.3
		C691.3,281,711.3,267.6,736.9,262.9z M741.5,262.8c-25.3,5.8-45.3,17.3-63.2,28.1C696.1,279.6,716.1,267.6,741.5,262.8z
		 M746.5,262.6c-25.2,5.8-45.1,16.1-62.9,26.1C701.3,278.2,721.3,267.5,746.5,262.6z M619.4,317c0.4,0.1,0.8,0.1,1.3,0.1
		c0,0,0,0,0,0c-0.5,0-0.9,0-1.4-0.1C619.3,317,619.4,317,619.4,317z M618.6,316C618.7,316,618.7,316,618.6,316
		c0.3,0,0.5,0.1,0.8,0.1c0,0,0,0,0,0C619.1,316.1,618.9,316.1,618.6,316z M616.6,316.5c0.3,0.1,0.6,0.1,0.9,0.2
		c-0.1,0-0.2,0.1-0.3,0.1c-0.3-0.1-0.7-0.1-1-0.2C616.4,316.6,616.5,316.5,616.6,316.5z M616.3,315.6c0,0,0.1,0,0.1,0
		c0.1,0,0.2,0,0.3,0.1c0,0-0.1,0-0.1,0C616.5,315.6,616.4,315.6,616.3,315.6z M614.9,316.1c-0.1,0-0.2,0.1-0.4,0.1
		c-0.2-0.1-0.4-0.1-0.6-0.2c0.1,0,0.3-0.1,0.4-0.1c0.1,0,0.2,0.1,0.3,0.1C614.8,316,614.8,316.1,614.9,316.1z M612.5,315.4
		c-0.1,0-0.2,0-0.2,0c-0.1,0-0.2-0.1-0.3-0.1c0.1,0,0.2,0,0.2,0C612.3,315.4,612.4,315.4,612.5,315.4z M556.7,318.7
		c10.8-3.8,21.8-7.7,35.9-6.7c-11.8,0.2-21.7,3.4-31.4,6.5c-5.2,1.7-10.6,3.4-16.2,4.6c-2.8,0.6-6.6,1.4-10.6,1.8
		c-0.2,0-0.3,0-0.5,0C542.1,323.9,549.5,321.3,556.7,318.7z M545.2,324c5.6-1.2,11-3,16.3-4.6c10.7-3.5,21.8-7,35.4-6.4
		c-11.2,0.5-20.9,3.4-30.4,6.2c-6.8,2-13.1,3.9-20.1,5l-1,0.2c-3.2,0.5-6.5,1-9.9,1.4c0,0-0.1,0-0.1,0
		C539.1,325.2,542.5,324.5,545.2,324z M545.5,325.1l1-0.2c7-1.1,13.7-3.1,20.2-5c10.6-3.2,21.5-6.4,34.5-6.2
		c-10.6,0.7-20,3.4-29.2,6c-8.2,2.3-15.9,4.6-24.3,5.4c-1.4,0.1-2.8,0.3-4.2,0.5c-2,0.2-4.2,0.5-6.3,0.7
		C540,326,542.8,325.6,545.5,325.1z M543.5,326.5c1.4-0.2,2.8-0.3,4.2-0.5c8.4-0.9,16.2-3.1,24.4-5.4c10.3-3,20.9-6,33.1-6.2
		c-9.8,1-18.7,3.5-27.5,6c-9.7,2.7-18.8,5.3-28.8,5.8c-2.2,0.1-4.5,0.3-6.6,0.5c-1.1,0.1-2.2,0.2-3.3,0.3
		C540.6,326.8,542.1,326.6,543.5,326.5z M542.4,327.5c2.3-0.2,4.4-0.4,6.6-0.5c10.1-0.5,19.2-3.1,29-5.9c9.5-2.7,19.2-5.4,30-6.2
		c0.1,0,0.2,0.1,0.3,0.1c-8.5,1.3-16.5,3.6-24.3,5.8c-11.3,3.2-21.9,6.3-33.6,6.4c-2.9,0-5.7,0.2-8.7,0.4c-0.3,0-0.6,0-0.9,0.1
		C541.3,327.6,541.9,327.6,542.4,327.5z M550.3,328.1c11.8-0.1,22.5-3.1,33.8-6.4c8.3-2.4,16.8-4.8,25.9-6.1
		c0.2,0.1,0.4,0.1,0.6,0.2c-7,1.5-13.7,3.5-20.3,5.4c-13,3.9-25.2,7.6-38.7,7c-2.8-0.1-5.6,0-8.4,0.1
		C545.6,328.2,548,328.1,550.3,328.1z M551.6,329.1c13.7,0.5,26-3.2,39-7.1c7-2.1,14.1-4.2,21.6-5.7c0.3,0.1,0.5,0.2,0.8,0.3
		c-5.4,1.4-10.7,3.1-16,4.8c-14.7,4.7-28.6,9.2-44.1,7.9c-2-0.2-4.1-0.2-6.1-0.2c-0.4,0-0.8,0-1.2,0
		C547.7,329,549.6,329,551.6,329.1z M552.9,330.1c1.8,0.1,3.7,0.2,5.4,0.2c13.5,0,25.9-4,38.9-8.2c5.6-1.8,11.4-3.6,17.2-5.1
		c0.4,0.1,0.7,0.2,1.1,0.3c-4,1.3-7.9,2.6-11.7,4c-15.8,5.5-32.1,11.2-49.6,9c-1.7-0.2-3.3-0.3-5-0.4
		C550.5,329.9,551.7,330,552.9,330.1z M554,331.1c0.1,0,0.1,0,0.2,0c2.6,0.3,5.2,0.5,7.8,0.5c14.8,0,28.7-4.8,42.2-9.6
		c4.3-1.5,8.7-3,13.2-4.4c0.5,0.1,1,0.1,1.5,0.2c-2.7,1-5.3,2-7.9,3c-17.5,6.7-35.6,13.7-55.3,10.5
		C555.1,331.2,554.6,331.2,554,331.1z M556.7,332.3c3,0.4,6,0.6,8.9,0.6c16.1,0,31.1-5.8,45.6-11.4c3.2-1.2,6.4-2.5,9.6-3.6
		c0.6,0,1.3,0,1.9,0c-1.6,0.7-3.1,1.3-4.7,2c-19.2,8.2-39,16.7-61.1,12.4C556.9,332.3,556.8,332.3,556.7,332.3z M618.4,320.7
		c2.4-1,4.8-2,7.2-3c0.9-0.1,1.8-0.3,2.7-0.5c-1,0.5-2,0.9-3,1.4c-20.6,9.9-41.9,20.2-66.1,15.1
		C580.6,336.9,599.8,328.6,618.4,320.7z M625.7,319.2c4.7-2.3,9.1-4.4,13.6-6.3c0.2-0.1,0.4-0.2,0.6-0.3c-2.3,1.2-4.7,2.5-7.2,3.9
		c-21,11.5-44.8,24.4-71.3,18.3C584.9,338.9,606.5,328.5,625.7,319.2z M633.1,317.2c3-1.6,5.8-3.1,8.6-4.6l1.6-0.9
		c0.3-0.2,0.6-0.3,0.9-0.5c-0.2,0.1-0.3,0.2-0.5,0.3c-1.1,0.7-2.3,1.4-3.5,2.1c-21.3,13.2-47.6,29.5-76.8,22.4
		C589.4,341,612.6,328.4,633.1,317.2z M578,338.7c23.6,0,44.9-13.2,62.7-24.3c1.2-0.7,2.3-1.4,3.5-2.1c1.4-0.9,2.8-1.7,4.2-2.5
		c-0.7,0.5-1.5,1-2.2,1.5c-19.4,13.8-48.3,34.4-80.4,26.1C569.9,338.3,574,338.7,578,338.7z M580.8,340.2
		c26.3,0,49.5-16.5,65.9-28.2c1.8-1.3,3.7-2.6,5.6-3.8c-1.2,0.9-2.5,1.9-3.7,2.9c-22.8,18.5-50,36-80.6,27.8
		C572.3,339.7,576.6,340.2,580.8,340.2z M649.1,311.6c2.2-1.8,4.5-3.5,6.9-5.2c-1.7,1.3-3.3,2.8-5,4.2
		c-29.3,26.8-55.8,36.5-80.9,29.5C600,347,626.7,329.8,649.1,311.6z M651.5,311.3c2.5-2.3,5.1-4.4,7.7-6.4c-2,1.7-4,3.5-5.9,5.5
		c-19.2,19.7-48.4,40.4-80.9,31.2C597.1,347.4,623.1,337.4,651.5,311.3z M654,311c2.7-2.8,5.6-5.3,8.5-7.6c-2.3,2-4.5,4.3-6.7,6.8
		c-8.2,9.4-21.5,22.1-38.1,29.4c-14.6,6.4-29,7.6-43.1,3.5C606.6,350.7,635.1,330.4,654,311z M618.1,340.3
		c16.7-7.4,30.1-20.2,38.4-29.6c3-3.4,6.1-6.4,9.3-9c-2.6,2.4-5.1,5.1-7.5,8.1c-7.9,9.9-20.8,23.3-38.1,31.2
		c-14.5,6.6-29,7.7-43.2,3.5C590.4,347.9,604.2,346.5,618.1,340.3z M578.8,345.9c13.7,3.6,27.7,2.2,41.7-4.2
		c17.4-7.9,30.5-21.4,38.4-31.4c3.1-4,6.4-7.3,9.9-10.2c-2.8,2.7-5.6,5.8-8.1,9.4C642.5,334.7,612.2,356.2,578.8,345.9z M661.3,310
		c3.3-4.6,6.8-8.3,10.5-11.5c-3.1,3-6,6.6-8.8,10.7c-16.7,25.4-47.5,49-82.2,38.1C613.7,356.1,643.4,334.8,661.3,310z M663.8,309.7
		c3.4-5.1,7-9.3,10.9-12.7c-3.3,3.3-6.3,7.2-9.2,12c-9.9,16.4-23.4,29.3-38.2,36.5c-14.4,6.9-29.4,8.1-44,3.5
		C617.3,358,647.3,334.7,663.8,309.7z M627.6,346.1c14.9-7.2,28.6-20.3,38.6-36.8c3.5-5.8,7.3-10.3,11.4-14
		c-3.5,3.6-6.7,7.9-9.7,13.2c-9.4,16.9-23.3,30.8-38.3,38.2c-14.5,7.1-29.7,8.3-44.6,3.4C599.2,354.2,613.7,352.9,627.6,346.1z
		 M630,347.6c15.1-7.5,29.2-21.5,38.7-38.6c3.5-6.4,7.4-11.3,11.7-15.1c-3.6,3.8-7,8.5-10,14.4c-11,21.6-29,38.1-48.2,43.9
		c-11.8,3.6-23.6,3.4-35.4-0.6C601.2,355.9,615.9,354.5,630,347.6z M622.4,353.1c19.3-5.9,37.5-22.5,48.7-44.4
		c3.6-7,7.6-12.3,12-16.3c-3.8,4-7.3,9.1-10.3,15.7c-10.6,22.5-28.5,39.6-48,45.7c-12,3.8-24,3.5-36.1-0.7
		C599.9,356.5,611.2,356.5,622.4,353.1z M625,354.6c19.7-6.2,37.8-23.5,48.5-46.2c3.6-7.6,7.7-13.2,12.3-17.5
		c-4,4.2-7.5,9.7-10.6,16.8c-10.1,23.3-28,41-47.8,47.5c-11.7,3.8-23.5,3.7-35.3-0.2C603,358.2,614.1,358.1,625,354.6z M677.6,307.5
		c-9.7,24.1-27.6,42.5-47.7,49.2c-11.7,3.9-23.9,3.8-36-0.3c11.3,3.3,22.7,3.1,33.7-0.4c20-6.5,38.1-24.4,48.3-47.9
		c3.4-7.9,7.4-13.7,12-18.1c0,0,0.1,0,0.1,0C684.1,294.3,680.6,300,677.6,307.5z M702.6,279.8c-1.9,0.7-3.7,1.6-5.4,2.6
		c-0.3,0.2-0.6,0.3-1,0.5c-2.3,1.2-4.6,2.3-6.8,3.5c17.5-9.6,37.4-19,62.2-24.1C732.8,266.8,716.9,273,702.6,279.8z M710.4,277.5
		c-0.6,0.1-1.1,0.2-1.7,0.4c14.2-6.4,30.1-12.1,48.7-16C739.7,266.2,724.1,271.7,710.4,277.5z M715.2,276.7c-0.3,0-0.7,0.1-1,0.2
		c14.2-5.8,30.3-11.3,48.7-15.4C744.9,266,729.2,271.2,715.2,276.7z M718.5,276.3c14.8-5.6,31.5-11,50.7-15.5
		c-19,5-35.5,10.2-50.1,15.5C718.9,276.2,718.7,276.3,718.5,276.3z M722.3,276c15.6-5.6,33.3-11,53.9-16.1c0,0,0,0,0,0
		c-20.2,5.6-37.8,10.8-53.4,16.1C722.6,275.9,722.4,276,722.3,276z M726.1,275.8c-0.1,0-0.2,0-0.3,0c15.9-5.3,33.7-10.6,54.3-16.2
		c22.1-6,32.7-19.5,29.9-37.9c-2.2-14.2-12.5-29.9-27.7-41.8c-16.1-12.7-35.6-19.6-53.4-19c-36.9,1.4-53.5,13.4-76.7,39.9
		c-1.8,2.1-3.6,4.1-5.3,6.1c-21.8,25.2-39,45.2-90,34.9c-33.3-6.7-46.8,16.3-55.8,31.5c-3.6,6.1-6.5,11-9.3,11.2l-0.2,0l-0.1,0.2
		c-13.3,22.5-18.1,37.1-15,45.9c2.1,5.9,7.3,8.3,13.3,10.6c1.7,0.6,3.6,0.9,5.7,0.9c4.7,0,10.5-1.4,17.2-3.1
		c6.5-1.6,14-3.5,22.2-4.3c-8.7,1.1-16.7,3.5-23.5,5.5c-9.1,2.7-16.3,4.9-21.7,3.3c-6.6-2-12.3-4.1-14.8-10.1
		c-3.7-8.7,0.3-24.1,12.2-47.1c2.9-0.4,5.4-5.1,8.8-11.5c8.3-15.5,22.2-41.5,57.4-34.1c53.4,11.3,71.3-9.7,94-36.4
		c1.8-2.1,3.6-4.3,5.5-6.4c24.1-27.8,41.3-40.4,79-40.9c17.7-0.2,37.2,7.2,53.4,20.4c15.4,12.5,25.9,28.6,28,43
		c2.8,18.3-7.7,31.9-29.5,38.3c-4.3,1.3-8.4,2.5-12.5,3.7C754.5,267.2,739.6,271.5,726.1,275.8z M729.2,275.7
		C729.2,275.7,729.2,275.7,729.2,275.7c12.7-4,26.8-8.1,42.5-12.7c4-1.2,8.2-2.4,12.5-3.7c30-8.8,31.7-28.3,30-39.2
		c-2.2-14.6-12.8-30.9-28.3-43.5c-16.4-13.3-36-20.8-54-20.6c-38,0.5-55.3,13.1-79.6,41.2c-1.9,2.2-3.7,4.3-5.5,6.4
		c-22.5,26.4-40.3,47.3-93.2,36.1c-35.8-7.6-49.9,18.7-58.3,34.5c-3.3,6.1-5.9,11-8.4,11.1l-0.2,0l-0.1,0.2
		c-12.1,23.4-16.1,39.1-12.4,48c2.9,6.8,9.8,8.9,15.3,10.6c1.4,0.4,2.8,0.6,4.4,0.6c4.9,0,10.7-1.8,17.7-3.9
		c7-2.1,15.2-4.6,24.2-5.6c-9.4,1.3-17.9,4.3-25.1,6.9c-8.5,3-15.8,5.6-21.3,4.3c-7.3-1.7-13.7-3.7-16.8-10.1
		c-4.4-9-1.2-25.1,9.7-49.3c2.5-0.4,4.7-4.8,7.9-11.4c8.2-17,22-45.5,59.8-37.1c55.3,12.2,73.8-9.8,97.3-37.6
		c1.9-2.2,3.8-4.5,5.7-6.8c25.7-30,42.8-42.5,81.9-42.1c17.8,0.2,37.5,8.2,54,21.9c15.8,13.1,26.5,29.9,28.7,44.7
		c2.8,18.7-7.8,32.7-29.7,39.6c-17.6,5.5-33.3,10.1-47.2,14.1C736.7,273.5,732.9,274.6,729.2,275.7z M734.9,274.9
		c1.9-0.6,3.9-1.1,5.9-1.7c13.9-4,29.7-8.5,47.3-14.1c22.3-7,33.1-21.4,30.2-40.5c-2.2-15.1-13.1-32-29-45.2
		c-16.6-13.9-36.5-21.9-54.5-22.1c-19.7-0.2-34.3,3-47.2,10.3c-12.5,7.1-23.2,18-35.3,32.2c-2,2.3-3.9,4.5-5.7,6.8
		c-23.3,27.6-41.6,49.5-96.5,37.4c-38.4-8.5-52.4,20.4-60.7,37.6c-2.9,6.1-5.3,10.9-7.4,11l-0.2,0l-0.1,0.2
		c-11.2,24.5-14.4,40.9-9.8,50.2c3.6,7.3,11.6,9.2,17.4,10.5c1,0.2,2.2,0.4,3.3,0.4c5.2,0,11.4-2.2,18.4-4.7
		c7.5-2.6,16.3-5.7,26.1-7c-10.1,1.5-19.1,5.1-26.8,8.2c-8.3,3.4-15.5,6.3-21.1,5.3c-7.8-1.3-15.1-3.1-18.9-10
		c-5.2-9.3-2.8-26.2,7.3-51.5c2.2-0.4,4.1-4.8,7-11.2c7.6-17.3,21.7-49.5,62.2-40.3c11.3,2.6,21.2,3.8,29.8,3.8
		c35.2,0,51.3-19.4,70.7-42.7c1.9-2.3,3.9-4.7,5.9-7.1c26.9-31.7,44.6-44.7,84.8-43.4c39.9,1.3,79.5,39.6,83.9,70
		c2.8,19-7.8,33.6-29.9,41C770.1,265.3,751.4,270.4,734.9,274.9z M740.8,274.1c15.1-4.1,32-8.8,51.2-15.2
		c22.5-7.5,33.3-22.4,30.4-41.8c-4.9-33.8-47.7-69.4-84.7-70.7c-40.5-1.4-58.4,11.8-85.4,43.7c-2,2.4-4,4.8-5.9,7.1
		c-24,28.8-43,51.6-99.7,38.6c-41.1-9.4-55.4,23.2-63.1,40.8c-2.6,5.9-4.7,10.6-6.5,10.7l-0.3,0l-0.1,0.2
		c-10.3,25.7-12.7,42.9-7.3,52.4c4,7.2,11.5,9,19.5,10.4c0.8,0.1,1.6,0.2,2.5,0.2c5.4,0,11.8-2.6,19.1-5.5c8-3.2,17.5-7.1,28.1-8.4
		c-10.9,1.6-20.5,6-28.7,9.7c-8.2,3.7-15.3,7-21.1,6.3c-8.1-1-16.5-2.5-21-9.9c-6-9.6-4.4-27.2,4.8-53.8c2-0.4,3.5-4.4,6.1-10.9
		c7.4-18.8,21.3-53.8,64.5-43.6c11.9,2.8,22.3,4.1,31.3,4.1c36,0,52.6-20.1,72.5-44.2c2-2.4,4-4.9,6.1-7.4
		c13.6-16.2,24.7-27.7,37.7-35.1c13.6-7.7,29.1-10.7,50-9.5c18,1,38.1,10.1,55.1,25.1c16.5,14.5,27.7,32.5,30,48.2
		c2,13.7-1.7,32.2-30.1,42.3C774.9,265.2,757,270.1,740.8,274.1z M746.4,273.6c14.8-3.8,31.1-8.4,49.6-14.9
		c22.6-8,33.5-23.3,30.6-43.2c-4.9-34.5-48.3-71.9-85.9-74c-21.1-1.2-36.7,1.8-50.4,9.6c-13.1,7.4-24.2,19-37.9,35.3
		c-2.1,2.5-4.1,5-6.2,7.4c-24.7,30-44.3,53.7-103,39.8c-43.9-10.3-57.9,25.1-65.4,44.1c-2.3,5.8-4.1,10.3-5.6,10.4l-0.3,0l-0.1,0.3
		c-9.4,26.9-11,44.8-4.8,54.7c4.8,7.6,13.3,9.2,21.6,10.2c0.6,0.1,1.1,0.1,1.7,0.1c5.6,0,12.3-3,19.8-6.5c8.4-3.8,18.3-8.3,29.5-9.8
		c-11.4,1.8-21.5,6.8-30,11.1c-8.2,4.1-15.3,7.7-21.2,7.3c-8.8-0.6-17.8-1.9-23.2-9.7c-6.8-10-6.1-28.3,2.4-56.1
		c1.7-0.5,3.1-4.3,5.3-10.5c3.4-9.6,8.7-24.2,18.8-34.9c12-12.8,28.2-16.8,48-12c61.2,14.8,81.4-10,107.1-41.4
		c2.1-2.5,4.2-5.1,6.4-7.8c28.1-33.8,46.2-49.4,90.5-45.9c18.1,1.4,38.4,11.1,55.7,26.6c17.2,15.4,28.4,33.6,30.6,50
		c2,14-1.7,32.9-30.3,43.6C779.6,265.1,762.2,269.8,746.4,273.6z M752.4,272.9c14.2-3.5,29.9-8,47.6-14.6
		c29.1-10.9,32.9-30.2,30.9-44.5c-2.3-16.6-13.6-35-30.9-50.5c-17.4-15.6-37.9-25.4-56.2-26.8c-44.7-3.5-62.9,12.1-91.2,46.2
		c-2.2,2.6-4.3,5.2-6.4,7.8c-25.5,31.2-45.6,55.8-106.2,41.1c-46.7-11.3-60.9,28.4-67.8,47.5c-1.9,5.3-3.5,9.9-4.8,10l-0.3,0
		l-0.1,0.3c-8.6,28.2-9.4,46.8-2.4,57c5.6,8.1,15.2,9.4,23.8,10c0.3,0,0.7,0,1,0c5.9,0,12.8-3.5,20.7-7.4
		c8.7-4.4,18.9-9.5,30.6-11.1c-11.9,1.9-22.2,7.6-31,12.5c-8.2,4.5-15.4,8.5-21.5,8.3c-9-0.2-19.1-1.2-25.3-9.5
		c-7.7-10.3-7.7-29.4,0-58.4c1.4-0.5,2.4-3.5,4.5-9.9c6.5-20.3,20.1-62.6,69-50.4c63.1,15.7,83.9-10,110.3-42.6
		c2.1-2.7,4.3-5.4,6.6-8.1c29.3-35.5,48-51.7,93.4-47.1c18.2,1.8,38.7,12.1,56.3,28.1c17.6,16,29,34.9,31.3,51.8
		c1.9,14.3-1.8,33.6-30.6,44.9C784.7,264.8,767.6,269.5,752.4,272.9z M756.7,272.8c14.2-3.4,29.9-7.9,47.3-14.6
		c29.3-11.5,33.1-31.2,31.1-45.7c-2.3-17.1-13.8-36.1-31.6-52.3c-17.7-16.1-38.4-26.5-56.8-28.3c-45.8-4.6-64.7,11.7-94.2,47.4
		c-2.3,2.7-4.4,5.4-6.6,8.1c-26.2,32.3-46.9,57.9-109.5,42.3c-21.4-5.3-38.6-0.8-51.2,13.4c-10.5,11.8-15.5,27.3-18.8,37.6
		c-1.6,5-3,9.4-4,9.4l-0.3,0l-0.1,0.3c-7.8,29.4-7.8,48.9,0.1,59.4c6.4,8.6,16.8,9.6,26,9.8c0.1,0,0.3,0,0.4,0
		c6.3,0,13.4-3.9,21.5-8.4c8.9-4.9,19.5-10.7,31.5-12.5c-12.2,2.1-22.9,8.4-31.9,13.8c-8.3,5-15.5,9.2-21.8,9.3
		c-10.3,0.1-20.7-0.9-27.5-9.2c-8.4-10.5-9.3-30.9-2.4-60.8c1.1-0.5,2-3.2,3.7-9.3c5.8-20.1,19.3-67.3,71.3-54
		c65.1,16.6,86.5-10.1,113.6-43.8c2.2-2.8,4.5-5.6,6.8-8.4c30.4-37.2,49.9-54.1,96.3-48.4c18.3,2.3,39.1,13.1,56.9,29.7
		c18,16.7,29.6,36.3,31.9,53.6c1.9,14.5-1.8,34.3-30.8,46.2C788.8,264.8,771.8,269.5,756.7,272.8z M807.9,257.9
		c29.5-12,33.3-32.2,31.3-47c-2.3-17.5-14.1-37.2-32.2-54.1c-18-16.7-38.9-27.6-57.4-29.9c-46.9-5.8-66.4,11.2-97.1,48.7
		c-2.3,2.8-4.6,5.7-6.8,8.4c-26.9,33.5-48.2,60-112.7,43.5c-52.7-13.4-66.4,34.2-72.3,54.6c-1.2,4.3-2.5,8.7-3.3,8.8l-0.3,0
		l-0.1,0.3c-7.1,30.7-6.2,50.9,2.5,61.8c6.6,8.2,16.5,9.6,26.5,9.6c0.5,0,1.1,0,1.6,0c6.6-0.1,13.8-4.4,22.3-9.4
		c9.6-5.7,20.1-12,32.3-13.9c-12.4,2.2-23,9-32.6,15.2c-8.4,5.4-15.6,10-22.3,10.4c-18.5,0.9-25.3-4-29.6-9
		c-9.3-10.8-10.9-32.1-4.8-63.2c0.9-0.5,1.5-2.8,3-8.5c3.4-13.5,10.6-41.7,31.5-54c11.4-6.7,25.5-8,41.9-3.7
		c14.3,3.7,26.5,5.4,37.1,5.4c39.5,0,57.8-22.9,79.7-50.4c2.3-2.9,4.6-5.8,7-8.8c16.4-20.2,28.7-33.5,42.9-41.7
		c15.5-8.9,32.9-11.4,56.4-8c18.2,2.6,39.7,14.3,57.5,31.2c18.4,17.4,30.3,37.6,32.6,55.4c2.8,21.2-8,37.6-31.1,47.4
		c-18.4,7.8-35,12.5-49.9,15.6C775.6,269.3,791,264.8,807.9,257.9z M811.9,257.7c29.6-12.6,33.5-33.2,31.6-48.3
		c-2.3-18-14.3-38.3-32.8-55.9c-18-17-39.6-28.8-58-31.4c-23.7-3.4-41.2-0.9-56.9,8.1c-14.3,8.2-26.6,21.6-43.1,41.9
		c-2.4,3-4.7,5.9-7,8.8c-27.6,34.7-49.5,62.1-116,44.8c-16.6-4.3-31-3.1-42.5,3.8c-21.2,12.5-28.4,40.9-31.9,54.5
		c-1,3.8-2,7.8-2.6,8l-0.3,0l-0.1,0.3c-6.2,31.6-4.6,53.1,4.9,64.2c4.1,4.7,10.3,9.4,26,9.4c1.4,0,2.8,0,4.3-0.1
		c6.8-0.3,14.2-5,22.7-10.5c9.9-6.4,20.8-13.4,33.6-15.3c-12.9,2.2-23.9,9.7-33.9,16.6c-8.5,5.8-15.9,10.9-22.7,11.4
		c-10.9,0.9-23.3,0.6-31.8-8.7c-10.2-11.1-12.6-33.2-7.2-65.7c0.7-0.5,1.2-2.5,2.3-7.6c3.2-14.4,9.9-44.3,31.9-57.7
		c11.8-7.2,26.5-8.5,43.7-3.9c14.8,3.9,27.5,5.7,38.6,5.7c40.4,0,59.1-23.7,81.5-52c2.4-3,4.8-6,7.3-9.1
		c14.7-18.3,28.2-34.1,44.2-43.4c16-9.2,33.8-11.5,57.9-7.5c18.3,3,40.1,15.3,58.2,32.7c18.8,18.1,30.9,39,33.2,57.2
		c2.7,21.6-8.1,38.4-31.4,48.7c-18,8-34.4,12.6-49.2,15.7C780.1,269.2,795.3,264.7,811.9,257.7z M815.9,257.4
		c29.8-13.2,33.8-34.2,31.8-49.5c-2.3-18.4-14.5-39.5-33.4-57.7c-18.2-17.6-40.1-29.9-58.6-32.9c-24.3-4-42.4-1.7-58.5,7.6
		c-16.1,9.3-29.6,25.2-44.4,43.5c-2.5,3.1-4.9,6.1-7.3,9.1c-28.4,35.8-50.7,64.2-119.2,46c-17.4-4.6-32.4-3.3-44.4,4
		c-22.3,13.6-29,43.7-32.2,58.2c-0.8,3.4-1.5,6.7-2,7.1l-0.3,0l-0.1,0.3c-5.5,32.9-3,55.3,7.4,66.6c6.9,7.5,16.1,9.3,25.1,9.3
		c2.5,0,5-0.1,7.4-0.3c7.1-0.6,14.5-5.7,23.1-11.6c10.1-6.9,21.3-14.6,34.4-16.6c-13.2,2.3-24.5,10.5-34.7,17.9
		c-8.6,6.3-16.1,11.7-23.2,12.5c-10.8,1.2-24.4,1.4-33.9-8.4c-11.1-11.4-14.3-34.3-9.6-68.1c0.5-0.5,0.9-2.1,1.7-6.6
		c2.7-14,9-46.9,32.1-61.4c12.2-7.6,27.5-9,45.6-4.2c15.4,4.2,28.5,6,40,6c41.3,0,60.4-24.4,83.3-53.5c2.4-3.1,4.9-6.3,7.5-9.5
		c31.9-39.9,52.6-62,105-52.1c18.5,3.5,40.4,16.3,58.8,34.3c19.2,18.8,31.5,40.3,33.8,59.1c2.7,22-8.2,39.2-31.6,49.9
		c-17.8,8.1-34,12.8-48.6,15.8C784.5,269.2,799.5,264.7,815.9,257.4z M819.9,257.2c23.7-10.9,34.8-28.4,32.1-50.8
		c-2.3-18.9-14.7-40.6-34.1-59.5c-18.5-18.1-40.6-31-59.2-34.5c-24.9-4.7-43.5-2.5-60.1,7.2c-16.4,9.5-30.4,26.1-45.7,45.2
		c-2.6,3.2-5.1,6.4-7.5,9.5c-29.1,37-52,66.2-122.4,47.2c-18.2-4.9-33.8-3.5-46.2,4.3c-23.5,14.7-29.8,47.8-32.5,61.9
		c-0.5,2.9-1.1,5.6-1.4,6.1l-0.2,0l0,0.3c-4.8,34.2-1.5,57.4,9.8,69c7.1,7.3,16.5,9.2,25.3,9.2c3.2,0,6.4-0.3,9.3-0.6
		c7.3-0.8,14.9-6.3,23.6-12.7c10.1-7.3,21.3-15.4,34.3-17.7c-13.2,2.7-24.4,11.2-34.6,19c-8.4,6.5-16.4,12.6-23.8,13.6
		c-11.3,1.6-25.7,2.1-36.1-8.1c-12-11.7-16.1-35.5-12-70.6c0.3-0.4,0.6-1.6,1.1-5.4c2.2-13.6,7.9-49.6,32.3-65.3
		c12.6-8.1,28.6-9.6,47.4-4.5c16,4.4,29.5,6.4,41.4,6.4c42.1,0,61.6-25,85-54.9c2.6-3.3,5.2-6.7,7.9-10
		c33-41.6,54.3-64.6,107.9-53.4c18.6,3.9,40.9,17.3,59.5,35.8c19.6,19.5,32.2,41.7,34.4,60.9c2.7,22.3-8.4,40-31.9,51.2
		c-17.6,8.3-33.6,13.1-48.2,15.9C788.8,269.2,803.7,264.6,819.9,257.2z M823.8,257c23.9-11.3,35.1-29.3,32.4-52
		c-2.3-19.4-14.9-41.7-34.7-61.4c-18.7-18.6-41.1-32.1-59.9-36c-25.5-5.3-44.6-3.3-61.7,6.7c-16.8,9.8-31.2,27.1-47,47
		c-2.7,3.4-5.4,6.8-7.9,10c-29.8,38-53.3,68.1-125.5,48.2c-19.1-5.2-35.3-3.7-48.1,4.6c-24.7,15.9-30.5,52.2-32.6,65.8
		c-0.4,2.3-0.7,4.3-0.9,4.8l-0.2,0l0,0.3c-4.1,35.5,0,59.6,12.2,71.5c7.4,7.2,16.6,9.2,25.4,9.2c3.9,0,7.8-0.4,11.3-0.9
		c7.6-1.1,15.7-7.2,24.2-13.8c10.6-8.2,22.4-17.2,36.3-19.2c-14,2.5-25.8,11.9-36.5,20.6c-8.6,6.9-16.7,13.4-24.4,14.7
		c-10.9,1.8-26.7,3-38.2-7.7c-12.9-12-17.8-36.6-14.4-73.1c0.2-0.4,0.3-1.3,0.7-3.9c1.6-12.9,6.5-52.1,32.3-69.3
		c13.1-8.7,29.7-10.3,49.4-4.8c16.5,4.6,30.6,6.7,42.8,6.7c43,0,63-25.7,86.9-56.5c2.6-3.4,5.3-6.8,8.1-10.3
		c34.2-43.3,56.2-67.2,110.8-54.7c18.8,4.3,41.3,18.3,60.1,37.3c20,20.2,32.8,43.1,35.1,62.8c2.6,22.7-8.5,40.8-32.2,52.4
		c-17.4,8.5-33.4,13.3-47.9,16.1C793,269.2,807.8,264.6,823.8,257z M827.8,256.7c24-11.8,35.3-30.2,32.7-53.2
		c-2.3-19.8-15.2-42.9-35.3-63.2c-19-19.2-41.6-33.2-60.6-37.5c-55.1-12.6-77.2,11.4-111.6,54.9c-2.8,3.5-5.5,7-8.1,10.3
		c-15.6,20-29,37.4-48.1,47.4c-20.9,11-46.5,11.6-80.7,2.1c-20-5.6-36.8-3.9-50.1,4.9c-26.1,17.3-31,56.9-32.6,69.9
		c-0.2,1.6-0.6,3.8-0.6,3.8c-3.4,36.8,1.5,61.7,14.7,74c7.7,7.2,17.2,9.1,26,9.1c4.7,0,9.1-0.6,12.9-1.2c7.9-1.3,16.1-7.9,24.8-14.9
		c10.8-8.7,22.8-18.3,37-20.5c-14.3,2.6-26.3,12.7-37.2,21.8c-8.8,7.4-17,14.3-25,15.8c-11.3,2.2-27.9,3.7-40.4-7.4
		c-13.9-12.4-19.6-37.8-16.9-75.7c0.1-0.3,0.1-0.9,0.2-2.2c3.9-45.1,19.6-64.9,32.1-73.5c13.5-9.3,30.8-11,51.4-5.2
		c17.1,4.8,31.5,7,44.1,7c44,0,64.5-26.5,88.9-58.1c2.7-3.4,5.4-7,8.2-10.6c35.4-45,58.1-69.8,113.7-55.9
		c19,4.7,41.7,19.3,60.8,38.9c20.4,20.9,33.4,44.5,35.7,64.6c2.6,23.1-8.7,41.6-32.5,53.6c-17.3,8.7-33.2,13.6-47.7,16.3
		C797.2,269.2,811.9,264.5,827.8,256.7z M835.4,255.5c-17.3,9-33.1,13.9-47.6,16.6c13.5-2.9,28.2-7.6,44.1-15.6
		c24.2-12.2,35.6-31,33-54.4c-2.3-20.3-15.4-44-35.9-65.1c-19.2-19.7-42.1-34.3-61.2-39.1c-56.1-14-78.9,10.9-114.5,56.2
		c-2.8,3.6-5.6,7.1-8.2,10.6c-16,20.7-29.7,38.5-49.3,48.8c-21.4,11.3-47.7,11.9-82.8,2c-20.9-6-38.4-4.2-52.1,5.3
		c-22.9,15.8-30.3,49-32.5,74.1c-0.1,0.7-0.2,1.8-0.2,1.8l0,0.4c-2.7,38.2,3,63.9,17.1,76.4c8,7.1,17.5,9.1,26.4,9.1
		c5.3,0,10.4-0.7,14.7-1.6c8.2-1.6,16.5-8.6,25.4-16c10.5-8.8,22-18.5,35.6-21.4c-13.6,3.2-25.1,13.3-35.8,22.7
		c-8.9,7.8-17.4,15.2-25.6,17c-18.5,3.9-32.4,1.6-42.5-7c-14.8-12.7-21.3-39-19.3-78.3l0,0c0-0.5,0.7-54.8,30.9-77.4
		c8.8-6.6,19.2-9.9,31.2-9.9c7.2,0,14.9,1.2,23.2,3.6c17.7,5.1,32.6,7.3,45.6,7.3c44.9,0,65.7-27.2,90.7-59.7
		c2.7-3.6,5.5-7.2,8.4-10.9c18.1-23.1,33.3-41.6,50.9-52c18.4-10.9,38.7-12.5,65.7-5.2c19.2,5.2,42.2,20.3,61.5,40.4
		c20.8,21.7,34.1,45.9,36.3,66.5C870.7,224.1,859.4,243.1,835.4,255.5z"/>
</g>
<linearGradient id="SVGID_3_" gradientUnits="userSpaceOnUse" x1="577.7015" y1="398.4092" x2="758.9982" y2="217.1124">
	<stop  offset="0" style="stop-color:#ED1E79"/>
	<stop  offset="1" style="stop-color:#6B00AA"/>
</linearGradient>
<path class="st5" d="M581.4,394.8L581.4,394.8c-2-2-2-5.2,0-7.1l101.5-101.5c2-2,5.2-2,7.1,0l0,0c2,2,2,5.2,0,7.1L588.5,394.8
	C586.5,396.7,583.3,396.7,581.4,394.8z"/>
<linearGradient id="SVGID_4_" gradientUnits="userSpaceOnUse" x1="742.0833" y1="128.5562" x2="808.04" y2="62.5995">
	<stop  offset="0" style="stop-color:#ED1E79"/>
	<stop  offset="1" style="stop-color:#6B00AA"/>
</linearGradient>
<path class="st6" d="M754.9,115.8L754.9,115.8c-1.7-1.7-1.7-4.3,0-6l25.5-25.5c1.7-1.7,4.3-1.7,6,0l0,0c1.7,1.7,1.7,4.3,0,6
	l-25.5,25.5C759.2,117.4,756.5,117.4,754.9,115.8z"/>
<linearGradient id="SVGID_5_" gradientUnits="userSpaceOnUse" x1="758.3248" y1="137.4316" x2="840.6121" y2="55.1443">
	<stop  offset="0" style="stop-color:#93DEFB"/>
	<stop  offset="0.651" style="stop-color:#EBADF8"/>
	<stop  offset="0.998" style="stop-color:#C7F2E3"/>
</linearGradient>
<path class="st7" d="M771.1,124.7L771.1,124.7c-1.7-1.7-1.7-4.3,0-6l46.1-46.1c1.7-1.7,4.3-1.7,6,0l0,0c1.7,1.7,1.7,4.3,0,6
	l-46.1,46.1C775.4,126.3,772.8,126.3,771.1,124.7z"/>
<linearGradient id="SVGID_6_" gradientUnits="userSpaceOnUse" x1="598.4446" y1="410.0233" x2="692.9391" y2="315.5287">
	<stop  offset="0" style="stop-color:#ED1E79"/>
	<stop  offset="1" style="stop-color:#FFDA00"/>
</linearGradient>
<path class="st8" d="M620.7,387.8L620.7,387.8c-2-2-2-5.2,0-7.1l6.3-6.3c2-2,5.2-2,7.1,0l0,0c2,2,2,5.2,0,7.1l-6.3,6.3
	C625.9,389.7,622.7,389.7,620.7,387.8z"/>
<linearGradient id="SVGID_7_" gradientUnits="userSpaceOnUse" x1="598.7742" y1="410.3529" x2="693.269" y2="315.858">
	<stop  offset="0" style="stop-color:#ED1E79"/>
	<stop  offset="1" style="stop-color:#FFDA00"/>
</linearGradient>
<path class="st9" d="M638.9,370.3L638.9,370.3c-2-2-2-5.2,0-7.1l56-56c2-2,5.2-2,7.1,0l0,0c2,2,2,5.2,0,7.1l-56,56
	C644,372.2,640.8,372.2,638.9,370.3z"/>
<linearGradient id="SVGID_8_" gradientUnits="userSpaceOnUse" x1="185.6488" y1="909.8411" x2="366.9456" y2="728.5443" gradientTransform="matrix(1.633974e-07 -1 1 1.633974e-07 -715.4335 741.8454)">
	<stop  offset="0" style="stop-color:#93DEFB"/>
	<stop  offset="0.651" style="stop-color:#EBADF8"/>
	<stop  offset="0.998" style="stop-color:#C7F2E3"/>
</linearGradient>
<path class="st10" d="M190.8,552.5L190.8,552.5c-2,2-5.2,2-7.1,0L82.1,451c-2-2-2-5.2,0-7.1l0,0c2-2,5.2-2,7.1,0l101.5,101.5
	C192.7,547.4,192.7,550.6,190.8,552.5z"/>
<linearGradient id="SVGID_9_" gradientUnits="userSpaceOnUse" x1="206.3919" y1="921.4551" x2="300.8864" y2="826.9605" gradientTransform="matrix(1.633974e-07 -1 1 1.633974e-07 -715.4335 741.8454)">
	<stop  offset="0" style="stop-color:#ED1E79"/>
	<stop  offset="1" style="stop-color:#FFDA00"/>
</linearGradient>
<path class="st11" d="M183.8,513.2L183.8,513.2c-2,2-5.2,2-7.1,0l-6.3-6.3c-2-2-2-5.2,0-7.1l0,0c2-2,5.2-2,7.1,0l6.3,6.3
	C185.7,508,185.7,511.2,183.8,513.2z"/>
<linearGradient id="SVGID_10_" gradientUnits="userSpaceOnUse" x1="206.7215" y1="921.7847" x2="301.2164" y2="827.2899" gradientTransform="matrix(1.633974e-07 -1 1 1.633974e-07 -715.4335 741.8454)">
	<stop  offset="0" style="stop-color:#ED1E79"/>
	<stop  offset="1" style="stop-color:#FFDA00"/>
</linearGradient>
<path class="st12" d="M166.2,495L166.2,495c-2,2-5.2,2-7.1,0l-56-56c-2-2-2-5.2,0-7.1l0,0c2-2,5.2-2,7.1,0l56,56
	C168.2,489.9,168.2,493.1,166.2,495z"/>
<g>
	<defs>
		<rect id="SVGID_11_" x="80.1" width="789" height="766"/>
	</defs>
	<clipPath id="SVGID_12_">
		<use xlink:href="#SVGID_11_"  style="overflow:visible;"/>
	</clipPath>
	<g id="Group_1339" transform="translate(49.247 63.478)" class="st13">
		
			<linearGradient id="Path_2926_1_" gradientUnits="userSpaceOnUse" x1="104.5579" y1="481.4051" x2="105.5579" y2="481.4051" gradientTransform="matrix(789.5436 0 0 -670.8223 -82374.1172 323272.6875)">
			<stop  offset="0" style="stop-color:#93DEFB"/>
			<stop  offset="0.651" style="stop-color:#EA9898"/>
			<stop  offset="0.998" style="stop-color:#C7F2E3"/>
		</linearGradient>
		<path id="Path_2926" class="st14" d="M809.7,160.3c0,0-113.7-35.4-193.8-83.8s-162.1-95-251.5-68.9s-96.9,98.7-123,180.7
			S120.3,450.9,232.1,559s208.7,156.5,408,59.6c133.5-64.9,187.7-119,249.7-178.9C943.9,387.6,1070.6,255.3,809.7,160.3z"/>
		
			<linearGradient id="Path_2927_1_" gradientUnits="userSpaceOnUse" x1="103.7416" y1="481.4196" x2="104.7626" y2="481.4196" gradientTransform="matrix(645.9592 0 0 -646.3322 -67432.0312 311517.7188)">
			<stop  offset="0" style="stop-color:#93DEFB"/>
			<stop  offset="0.651" style="stop-color:#EA9898"/>
			<stop  offset="0.998" style="stop-color:#C7F2E3"/>
		</linearGradient>
		<path id="Path_2927" class="st15" d="M99.1,406c0,0-73.8,97.1,69.6,197.7s398.9,125.6,479.1-37.9s123.5-211.5,5.8-345
			S186.3-46.5,165.3,104.2S207.4,286.2,99.1,406z"/>
		
			<linearGradient id="Path_2928_1_" gradientUnits="userSpaceOnUse" x1="104.5314" y1="481.8668" x2="105.5314" y2="481.8668" gradientTransform="matrix(694.8624 0 0 -304.2263 -72455.9844 147115.2812)">
			<stop  offset="0" style="stop-color:#5F7FA8"/>
			<stop  offset="0.998" style="stop-color:#EA9898"/>
		</linearGradient>
		<path id="Path_2928" class="st16" d="M640.2,618.6C762,559.4,817.8,509.1,873.8,455.2c-30.1-38.1-50.4-76.9-114.1-75
			c-103.4,3-162,118.4-242.9,63.4c-68.6-46.7-102.9-57.2-207.5-41c-22.7,3.5-94.1,21.5-124.8-36c-12.4,68.1-7.6,139.1,47.5,192.4
			C343.9,667.1,440.8,715.5,640.2,618.6z"/>
		
			<linearGradient id="Path_2929_1_" gradientUnits="userSpaceOnUse" x1="104.5178" y1="481.5587" x2="105.5178" y2="481.5587" gradientTransform="matrix(654.7141 0 0 -478.8283 -68250.3359 231015.3594)">
			<stop  offset="0" style="stop-color:#93DEFB"/>
			<stop  offset="0.651" style="stop-color:#EA9898"/>
			<stop  offset="0.998" style="stop-color:#C7F2E3"/>
		</linearGradient>
		<path id="Path_2929" class="st17" d="M825.1,481.4c-121.1-142.8-254.8,1.4-298.1-98c-77-176.6-176.6-85.5-269.4-177.5
			c-5.2-5.3-11-9.9-17.3-13.9c-27.7,83.6-118.2,260.6-8.1,367c111.8,108.1,208.7,156.5,408,59.6c93.3-45.4,147.9-85.5,193.5-126
			C831,488.8,828.1,485,825.1,481.4z"/>
	</g>
</g>
<path id="Path_2930" class="st18" d="M818.1,209.1c0,23.2-18.8,41.9-41.9,41.9s-41.9-18.8-41.9-41.9c0-23.1,18.8-41.9,41.9-41.9
	C799.3,167.1,818.1,185.9,818.1,209.1C818.1,209.1,818.1,209.1,818.1,209.1z"/>
<linearGradient id="Path_2931_1_" gradientUnits="userSpaceOnUse" x1="151.9004" y1="548.004" x2="152.9004" y2="548.004" gradientTransform="matrix(73.3484 0 0 -73.345 -10392.4814 40392.793)">
	<stop  offset="0" style="stop-color:#46BFD0"/>
	<stop  offset="0.998" style="stop-color:#93DEFB"/>
</linearGradient>
<path id="Path_2931" class="st19" d="M800.9,227.7c-23.9,0-43.3-19.4-43.3-43.3c0-7.6,2-15.1,5.8-21.7c-17.4,15.3-19,41.8-3.7,59.2
	s41.8,19,59.2,3.7c1.3-1.2,2.6-2.4,3.7-3.7C815.9,225.7,808.5,227.7,800.9,227.7z"/>
<linearGradient id="Path_2932_1_" gradientUnits="userSpaceOnUse" x1="152.7867" y1="548.0336" x2="152.4757" y2="546.8555" gradientTransform="matrix(83.838 0 0 -83.838 -12007.874 46100.9414)">
	<stop  offset="2.000000e-03" style="stop-color:#93DEFB"/>
	<stop  offset="1" style="stop-color:#46BFD0"/>
</linearGradient>
<path id="Path_2932" class="st20" d="M833,194.2c0,23.2-18.8,41.9-41.9,41.9c-23.2,0-41.9-18.8-41.9-41.9
	c0-23.2,18.8-41.9,41.9-41.9c0,0,0,0,0,0C814.3,152.2,833,171,833,194.2z"/>
<path id="Path_2944" class="st21" d="M422.5,218.3"/>
<path id="Path_2945" class="st21" d="M431.7,218.3"/>
<path id="Path_2952" class="st21" d="M401,218.3"/>
<path id="Path_2992" class="st21" d="M391.8,218.3"/>
<path id="Path_2994" class="st21" d="M370.4,218.3"/>
<path id="Path_2995" class="st21" d="M361.1,218.3"/>
<path id="Path_3003" class="st21" d="M339.7,218.3"/>
<path id="Path_3022" class="st21" d="M349.9,321.2c-0.8,0.1-1.6,0.4-2.2,0.9C348.4,321.8,349.1,321.5,349.9,321.2z"/>
<path id="Path_3062" class="st21" d="M330.5,218.3"/>
<path id="Path_3064" class="st21" d="M299.8,218.3"/>
<path id="Path_3065" class="st21" d="M309,218.3"/>
<path id="Path_3074" class="st21" d="M278.3,218.3"/>
<path id="Path_3132" class="st21" d="M269.1,218.3"/>
<path id="Path_3133" class="st21" d="M238.4,218.3"/>
<path id="Path_3135" class="st21" d="M247.6,218.3"/>
<path id="Path_3143" class="st21" d="M216.9,218.3"/>
<path id="Path_3187" class="st21" d="M207.7,218.3"/>
<rect id="Rectangle_2078" x="50.6" y="549.3" transform="matrix(0.7071 -0.7071 0.7071 0.7071 -398.3712 207.3907)" class="st22" width="1.1" height="70.6"/>
<rect id="Rectangle_2079" x="68.1" y="526.9" transform="matrix(0.7071 -0.7071 0.7071 0.7071 -376.0064 216.6964)" class="st22" width="10.8" height="70.6"/>
<rect id="Rectangle_2081" x="23.4" y="571.7" transform="matrix(0.7071 -0.7071 0.7071 0.7071 -420.7518 198.1091)" class="st22" width="10.8" height="70.6"/>
<rect id="Rectangle_2082" x="724.2" y="104.6" class="st23" width="9.2" height="15.4"/>
<path id="Path_3226" class="st24" d="M745.7,736.1c-3.2,0-5.9-2.6-5.9-5.9c0-3.2,2.6-5.9,5.9-5.9c3.2,0,5.9,2.6,5.9,5.9c0,0,0,0,0,0
	C751.6,733.5,749,736.1,745.7,736.1z"/>
<rect id="Rectangle_2083" x="652.2" y="716" transform="matrix(0.7071 -0.7071 0.7071 0.7071 -327.6329 678.0367)" class="st25" width="4.9" height="37.1"/>
<rect id="Rectangle_2085" x="300.1" y="479" transform="matrix(0.7067 -0.7075 0.7075 0.7067 -241.9848 377.8668)" class="st2" width="69.3" height="3.6"/>
<rect id="Rectangle_2086" x="292.9" y="471.8" transform="matrix(0.7076 -0.7066 0.7066 0.7076 -238.8674 369.9525)" class="st2" width="69.3" height="3.6"/>
<rect id="Rectangle_2087" x="285.8" y="464.7" transform="matrix(0.7071 -0.7071 0.7071 0.7071 -235.9904 363.1826)" class="st2" width="69.3" height="3.6"/>
<path id="Path_3247" class="st26" d="M528.9,375.6l-0.7,0.7l0,0L528.9,375.6L528.9,375.6z"/>
<path id="Path_3253" class="st26" d="M625.4,472l-0.7,0.7l0,0L625.4,472L625.4,472z"/>
<path id="Path_3254" class="st26" d="M586.8,433.4l-0.7,0.7l0,0L586.8,433.4L586.8,433.4z"/>
<path id="Path_3255" class="st26" d="M548.2,394.9l-0.7,0.7l0,0L548.2,394.9L548.2,394.9z"/>
<g>
	<linearGradient id="SVGID_13_" gradientUnits="userSpaceOnUse" x1="51.1694" y1="379.7986" x2="133.7654" y2="379.7986">
		<stop  offset="0" style="stop-color:#ED1E79"/>
		<stop  offset="1" style="stop-color:#6B00AA"/>
	</linearGradient>
	<path class="st27" d="M122.8,385c-3,0-4.5-2.6-5.8-4.8c-1.2-2.1-2.3-4-4.3-4c-2,0-3.1,1.8-4.3,4c-1.3,2.3-2.8,4.8-5.8,4.8
		c-3,0-4.5-2.6-5.8-4.8c-1.2-2.1-2.3-4-4.3-4c-2,0-3.1,1.8-4.3,4c-1.3,2.3-2.8,4.8-5.8,4.8c-3,0-4.5-2.6-5.8-4.8
		c-1.2-2.1-2.3-4-4.3-4c-2,0-3.1,1.8-4.3,4c-1.3,2.3-2.8,4.8-5.8,4.8s-4.5-2.6-5.8-4.8c-1.2-2.1-2.3-4-4.3-4c-0.5,0-0.8-0.4-0.8-0.8
		c0-0.5,0.4-0.8,0.8-0.8c3,0,4.5,2.6,5.8,4.8c1.2,2.1,2.3,4,4.3,4c2,0,3.1-1.8,4.3-4c1.3-2.3,2.8-4.8,5.8-4.8s4.5,2.6,5.8,4.8
		c1.2,2.1,2.3,4,4.3,4c2,0,3.1-1.8,4.3-4c1.3-2.3,2.8-4.8,5.8-4.8c3,0,4.5,2.6,5.8,4.8c1.2,2.1,2.3,4,4.3,4c2,0,3.1-1.8,4.3-4
		c1.3-2.3,2.8-4.8,5.8-4.8s4.5,2.6,5.8,4.8c1.2,2.1,2.3,4,4.3,4c2,0,3.1-1.8,4.3-4c1.3-2.3,2.8-4.8,5.8-4.8c0.5,0,0.8,0.4,0.8,0.8
		c0,0.5-0.4,0.8-0.8,0.8c-2,0-3.1,1.8-4.3,4C127.3,382.5,125.8,385,122.8,385z"/>
	<linearGradient id="SVGID_14_" gradientUnits="userSpaceOnUse" x1="51.1694" y1="365.9597" x2="133.7654" y2="365.9597">
		<stop  offset="0" style="stop-color:#ED1E79"/>
		<stop  offset="1" style="stop-color:#6B00AA"/>
	</linearGradient>
	<path class="st28" d="M122.8,371.2c-3,0-4.5-2.6-5.8-4.8c-1.2-2.1-2.3-4-4.3-4c-2,0-3.1,1.8-4.3,4c-1.3,2.3-2.8,4.8-5.8,4.8
		c-3,0-4.5-2.6-5.8-4.8c-1.2-2.1-2.3-4-4.3-4c-2,0-3.1,1.8-4.3,4c-1.3,2.3-2.8,4.8-5.8,4.8c-3,0-4.5-2.6-5.8-4.8
		c-1.2-2.1-2.3-4-4.3-4c-2,0-3.1,1.8-4.3,4c-1.3,2.3-2.8,4.8-5.8,4.8s-4.5-2.6-5.8-4.8c-1.2-2.1-2.3-4-4.3-4c-0.5,0-0.8-0.4-0.8-0.8
		c0-0.5,0.4-0.8,0.8-0.8c3,0,4.5,2.6,5.8,4.8c1.2,2.1,2.3,4,4.3,4c2,0,3.1-1.8,4.3-4c1.3-2.3,2.8-4.8,5.8-4.8s4.5,2.6,5.8,4.8
		c1.2,2.1,2.3,4,4.3,4c2,0,3.1-1.8,4.3-4c1.3-2.3,2.8-4.8,5.8-4.8c3,0,4.5,2.6,5.8,4.8c1.2,2.1,2.3,4,4.3,4c2,0,3.1-1.8,4.3-4
		c1.3-2.3,2.8-4.8,5.8-4.8s4.5,2.6,5.8,4.8c1.2,2.1,2.3,4,4.3,4c2,0,3.1-1.8,4.3-4c1.3-2.3,2.8-4.8,5.8-4.8c0.5,0,0.8,0.4,0.8,0.8
		c0,0.5-0.4,0.8-0.8,0.8c-2,0-3.1,1.8-4.3,4C127.3,368.6,125.8,371.2,122.8,371.2z"/>
</g>
<g>
	<linearGradient id="SVGID_15_" gradientUnits="userSpaceOnUse" x1="130.0239" y1="81.6374" x2="207.391" y2="81.6374">
		<stop  offset="0" style="stop-color:#EA9898"/>
		<stop  offset="0" style="stop-color:#E79A9B"/>
		<stop  offset="0.227" style="stop-color:#005494;stop-opacity:0.4"/>
	</linearGradient>
	<path class="st29" d="M162,74.9c-13.6,13.6-24.2,29-32,45.4L207.4,43C191,50.7,175.6,61.4,162,74.9z"/>
	<linearGradient id="SVGID_16_" gradientUnits="userSpaceOnUse" x1="115.1181" y1="101.8778" x2="262.7775" y2="101.8778">
		<stop  offset="0" style="stop-color:#EA9898"/>
		<stop  offset="0" style="stop-color:#E79A9B"/>
		<stop  offset="0.227" style="stop-color:#005494;stop-opacity:0.4"/>
	</linearGradient>
	<path class="st30" d="M247.3,30.1L117.2,160.2c-0.9,5.1-1.6,10.3-2.1,15.5L262.8,28C257.6,28.5,252.4,29.2,247.3,30.1z"/>
	<linearGradient id="SVGID_17_" gradientUnits="userSpaceOnUse" x1="115.0626" y1="121.4069" x2="301.8915" y2="121.4069">
		<stop  offset="0" style="stop-color:#EA9898"/>
		<stop  offset="0" style="stop-color:#E79A9B"/>
		<stop  offset="0.227" style="stop-color:#005494;stop-opacity:0.4"/>
	</linearGradient>
	<path class="st31" d="M289.9,28L115.1,202.9c0.3,4,0.8,8,1.4,12L301.9,29.4C297.9,28.8,293.9,28.3,289.9,28z"/>
	<linearGradient id="SVGID_18_" gradientUnits="userSpaceOnUse" x1="121.5279" y1="140.6642" x2="333.9407" y2="140.6642">
		<stop  offset="0" style="stop-color:#EA9898"/>
		<stop  offset="0" style="stop-color:#E79A9B"/>
		<stop  offset="0.227" style="stop-color:#005494;stop-opacity:0.4"/>
	</linearGradient>
	<path class="st32" d="M323.9,34.5L121.5,236.9c1,3.4,2.1,6.7,3.4,10l209-209C330.6,36.6,327.3,35.5,323.9,34.5z"/>
	<linearGradient id="SVGID_19_" gradientUnits="userSpaceOnUse" x1="133.3417" y1="160.1661" x2="361.1308" y2="160.1661">
		<stop  offset="0" style="stop-color:#EA9898"/>
		<stop  offset="0" style="stop-color:#E79A9B"/>
		<stop  offset="0.227" style="stop-color:#005494;stop-opacity:0.4"/>
	</linearGradient>
	<path class="st33" d="M352.6,46.3L133.3,265.5c1.5,2.9,3.2,5.7,4.9,8.5L361.1,51.1C358.3,49.4,355.5,47.8,352.6,46.3z"/>
	<linearGradient id="SVGID_20_" gradientUnits="userSpaceOnUse" x1="149.3345" y1="179.7852" x2="384.3755" y2="179.7852">
		<stop  offset="0" style="stop-color:#EA9898"/>
		<stop  offset="0" style="stop-color:#E79A9B"/>
		<stop  offset="0.227" style="stop-color:#005494;stop-opacity:0.4"/>
	</linearGradient>
	<path class="st34" d="M377.1,62.3L149.3,290c2,2.5,4,4.9,6.1,7.3L384.4,68.4C382,66.3,379.6,64.2,377.1,62.3z"/>
	<linearGradient id="SVGID_21_" gradientUnits="userSpaceOnUse" x1="168.9879" y1="199.4383" x2="404.0289" y2="199.4383">
		<stop  offset="0" style="stop-color:#EA9898"/>
		<stop  offset="0" style="stop-color:#E79A9B"/>
		<stop  offset="0.227" style="stop-color:#005494;stop-opacity:0.4"/>
	</linearGradient>
	<path class="st35" d="M397.9,81.9L169,310.8c2.4,2.1,4.8,4.2,7.3,6.1L404,89.2C402.1,86.7,400,84.3,397.9,81.9z"/>
	<linearGradient id="SVGID_22_" gradientUnits="userSpaceOnUse" x1="192.2326" y1="219.0572" x2="420.0217" y2="219.0572">
		<stop  offset="0" style="stop-color:#EA9898"/>
		<stop  offset="0" style="stop-color:#E79A9B"/>
		<stop  offset="0.227" style="stop-color:#005494;stop-opacity:0.4"/>
	</linearGradient>
	<path class="st36" d="M415.2,105.2L192.2,328.1c2.8,1.7,5.6,3.3,8.5,4.9L420,113.7C418.5,110.8,416.9,108,415.2,105.2z"/>
	<linearGradient id="SVGID_23_" gradientUnits="userSpaceOnUse" x1="219.423" y1="238.5591" x2="431.8355" y2="238.5591">
		<stop  offset="0" style="stop-color:#EA9898"/>
		<stop  offset="0" style="stop-color:#E79A9B"/>
		<stop  offset="0.227" style="stop-color:#005494;stop-opacity:0.4"/>
	</linearGradient>
	<path class="st37" d="M428.4,132.4l-209,209c3.3,1.2,6.6,2.4,10,3.4l202.4-202.4C430.8,139,429.7,135.7,428.4,132.4z"/>
	<linearGradient id="SVGID_24_" gradientUnits="userSpaceOnUse" x1="251.4719" y1="257.8164" x2="438.3008" y2="257.8164">
		<stop  offset="0" style="stop-color:#EA9898"/>
		<stop  offset="0" style="stop-color:#E79A9B"/>
		<stop  offset="0.227" style="stop-color:#005494;stop-opacity:0.4"/>
	</linearGradient>
	<path class="st38" d="M436.9,164.4L251.5,349.8c4,0.6,8,1.1,12,1.4l174.9-174.9C438,172.4,437.5,168.4,436.9,164.4z"/>
	<linearGradient id="SVGID_25_" gradientUnits="userSpaceOnUse" x1="290.5859" y1="277.3455" x2="438.2452" y2="277.3455">
		<stop  offset="0" style="stop-color:#EA9898"/>
		<stop  offset="0" style="stop-color:#E79A9B"/>
		<stop  offset="0.227" style="stop-color:#005494;stop-opacity:0.4"/>
	</linearGradient>
	<path class="st39" d="M438.2,203.5L290.6,351.2c5.2-0.4,10.3-1.1,15.5-2.1L436.2,219C437.1,213.9,437.8,208.7,438.2,203.5z"/>
	<linearGradient id="SVGID_26_" gradientUnits="userSpaceOnUse" x1="345.9727" y1="297.5861" x2="423.3394" y2="297.5861">
		<stop  offset="0" style="stop-color:#EA9898"/>
		<stop  offset="0" style="stop-color:#E79A9B"/>
		<stop  offset="0.227" style="stop-color:#005494;stop-opacity:0.4"/>
	</linearGradient>
	<path class="st40" d="M346,336.3c16.4-7.8,31.8-18.4,45.4-32c13.6-13.6,24.2-29,32-45.4L346,336.3z"/>
</g>
<radialGradient id="SVGID_27_" cx="153.1895" cy="726.5" r="25.0682" gradientUnits="userSpaceOnUse">
	<stop  offset="0" style="stop-color:#291E79"/>
	<stop  offset="0.9995" style="stop-color:#FFFFFF"/>
</radialGradient>
<circle class="st41" cx="153.2" cy="726.5" r="25.1"/>
<linearGradient id="SVGID_28_" gradientUnits="userSpaceOnUse" x1="145.7849" y1="740.0286" x2="145.7849" y2="697.1477">
	<stop  offset="0" style="stop-color:#5F7FA8"/>
	<stop  offset="0.998" style="stop-color:#EA9898"/>
</linearGradient>
<circle class="st42" cx="145.8" cy="718.6" r="21.4"/>
<g>
	<g class="st43">
		
			<pattern  id="SVGID_29_" xlink:href="#Nova_amostra_de_padr√£o_1" patternTransform="matrix(0.353 -0.2063 -0.2063 -0.353 -6589.0244 -13374.3164)"  class="st43">
		</pattern>
		<circle class="st44" cx="538.1" cy="451" r="74"/>
	</g>
	<g class="st45">
		<path class="st46" d="M538.2,315.6c74.8,0,135.5,60.6,135.5,135.5S613,586.5,538.2,586.5C537.3,586.5,537.9,315.6,538.2,315.6z"/>
	</g>
	<g>
		<pattern  id="SVGID_30_" xlink:href="#Unnamed_Pattern_4" patternTransform="matrix(-1 0 0 -1 -15515.418 -17230.1777)">
		</pattern>
		<path class="st47" d="M538,374.4c42.3,0,76.6,34.3,76.6,76.6c0,42.3-34.3,76.6-76.6,76.6C537.5,527.7,537.8,374.4,538,374.4z"/>
	</g>
	<g class="st48">
		<linearGradient id="SVGID_31_" gradientUnits="userSpaceOnUse" x1="490.5179" y1="451.038" x2="585.6984" y2="451.038">
			<stop  offset="0" style="stop-color:#93DEFB"/>
			<stop  offset="0.651" style="stop-color:#EA9898"/>
			<stop  offset="0.998" style="stop-color:#C7F2E3"/>
		</linearGradient>
		<circle class="st49" cx="538.1" cy="451" r="47.6"/>
	</g>
</g>
</svg>
