<?xml version="1.0" encoding="utf-8"?>
<!-- Generator: Adobe Illustrator 25.0.0, SVG Export Plug-In . SVG Version: 6.00 Build 0)  -->
<svg version="1.1" id="Shape" xmlns="http://www.w3.org/2000/svg" xmlns:xlink="http://www.w3.org/1999/xlink" x="0px" y="0px"
	 viewBox="0 0 27.8 35.7" style="enable-background:new 0 0 27.8 35.7;" xml:space="preserve">
<path d="M17.7,14.8l-3.8-2c-0.1,0-0.1,0-0.2,0l-3.7,2c-0.1,0-0.1,0.1-0.1,0.2v2.6c0,2.2,1.3,4.1,3.3,5l0.5,0.2c0,0,0.1,0,0.2,0
	l0.6-0.3c2-0.8,3.4-2.8,3.4-5V15C17.8,14.9,17.8,14.8,17.7,14.8z M17.4,17.6c0,2.1-1.2,3.9-3.1,4.7l0,0l-0.5,0.2l-0.4-0.2
	c-1.9-0.8-3.1-2.6-3.1-4.7v-2.5l3.5-1.9l3.6,1.9L17.4,17.6z"/>
<path d="M12.4,17.5c-0.1-0.1-0.2-0.1-0.3-0.1c-0.1,0.1-0.1,0.2-0.1,0.3c0,0,0,0,0,0.1l1,1.2c0.1,0.1,0.2,0.1,0.3,0c0,0,0,0,0,0
	l2.3-1.9c0.1-0.1,0.1-0.2,0-0.3c-0.1-0.1-0.2-0.1-0.3,0l-2.2,1.8L12.4,17.5z"/>
</svg>
