<?xml version="1.0" encoding="utf-8"?>
<!-- Generator: Adobe Illustrator 25.0.0, SVG Export Plug-In . SVG Version: 6.00 Build 0)  -->
<svg version="1.1" id="Shape" xmlns="http://www.w3.org/2000/svg" xmlns:xlink="http://www.w3.org/1999/xlink" x="0px" y="0px"
	 viewBox="0 0 35.7 35.7" style="enable-background:new 0 0 35.7 35.7;" xml:space="preserve">
<g>
	<path d="M17.5,18.3v-6.7c0-0.1-0.1-0.2-0.2-0.2h-5.8c-0.1,0-0.2,0.1-0.2,0.2l0,0v6.7c0,0.1,0.1,0.2,0.2,0.2c0,0,0,0,0,0h5.8
		C17.4,18.4,17.5,18.4,17.5,18.3C17.5,18.3,17.5,18.3,17.5,18.3z M17.1,18.1h-5.4v-6.4h5.4L17.1,18.1z"/>
	<path d="M24.1,17.2h-5.8c-0.1,0-0.2,0.1-0.2,0.2c0,0,0,0,0,0l0,0v6.7c0,0.1,0.1,0.2,0.2,0.2h5.8c0.1,0,0.2-0.1,0.2-0.2c0,0,0,0,0,0
		l0,0v-6.7C24.3,17.3,24.2,17.2,24.1,17.2C24.1,17.2,24.1,17.2,24.1,17.2z M24,24h-5.4v-6.4H24V24z"/>
	<path d="M12.3,12.7h4.2c0.1,0,0.2-0.1,0.2-0.2c0,0,0,0,0,0c0-0.1-0.1-0.2-0.2-0.2h-4.2c-0.1,0-0.2,0.1-0.2,0.2c0,0,0,0,0,0
		C12.1,12.6,12.2,12.7,12.3,12.7C12.3,12.7,12.3,12.7,12.3,12.7z"/>
	<path d="M12.3,13.6h4.2c0.1,0,0.2-0.1,0.2-0.2c0-0.1-0.1-0.2-0.2-0.2h-4.2c-0.1,0-0.2,0.1-0.2,0.2C12.1,13.6,12.2,13.6,12.3,13.6z"
		/>
	<path d="M12.3,14.6h4.2c0.1,0,0.2-0.1,0.2-0.2s-0.1-0.2-0.2-0.2h-4.2c-0.1,0-0.2,0.1-0.2,0.2S12.2,14.6,12.3,14.6z"/>
	<path d="M12.3,15.5h4.2c0.1,0,0.2-0.1,0.2-0.2s-0.1-0.2-0.2-0.2h-4.2c-0.1,0-0.2,0.1-0.2,0.2S12.2,15.5,12.3,15.5z"/>
	<path d="M12.3,16.5h4.2c0.1,0,0.2-0.1,0.2-0.2c0-0.1-0.1-0.2-0.2-0.2h-4.2c-0.1,0-0.2,0.1-0.2,0.2C12.1,16.4,12.2,16.5,12.3,16.5z"
		/>
	<path d="M12.3,17.4h2.8c0.1,0,0.2-0.1,0.2-0.2c0-0.1-0.1-0.2-0.2-0.2h-2.8c-0.1,0-0.2,0.1-0.2,0.2c0,0,0,0,0,0
		C12.1,17.3,12.2,17.4,12.3,17.4C12.3,17.4,12.3,17.4,12.3,17.4z"/>
	<path d="M19.3,21.6c0.1,0,0.2-0.1,0.2-0.2l0,0v-1.4c0-0.1-0.1-0.2-0.2-0.2c-0.1,0-0.2,0.1-0.2,0.2v1.4
		C19.1,21.6,19.2,21.6,19.3,21.6L19.3,21.6z"/>
	<path d="M20.3,23.3c0.1,0,0.2-0.1,0.2-0.2c0,0,0,0,0,0l0,0v-4.6c0-0.1-0.1-0.2-0.2-0.2c-0.1,0-0.2,0.1-0.2,0.2c0,0,0,0,0,0v4.6
		C20.1,23.2,20.2,23.3,20.3,23.3C20.3,23.3,20.3,23.3,20.3,23.3z"/>
	<path d="M21.2,22.4c0.1,0,0.2-0.1,0.2-0.2l0,0v-3c0-0.1-0.1-0.2-0.2-0.2c-0.1,0-0.2,0.1-0.2,0.2v3C21.1,22.4,21.1,22.4,21.2,22.4
		L21.2,22.4z"/>
	<path d="M22.2,23.3c0.1,0,0.2-0.1,0.2-0.2c0,0,0,0,0,0v-4.6c0-0.1-0.1-0.2-0.2-0.2c-0.1,0-0.2,0.1-0.2,0.2l0,0v4.6
		C22,23.2,22.1,23.3,22.2,23.3C22.2,23.3,22.2,23.3,22.2,23.3L22.2,23.3z"/>
	<path d="M23.2,21.6c0.1,0,0.2-0.1,0.2-0.2c0,0,0,0,0,0l0,0v-1.4c0-0.1-0.1-0.2-0.2-0.2c-0.1,0-0.2,0.1-0.2,0.2v1.4
		C23,21.6,23.1,21.6,23.2,21.6L23.2,21.6L23.2,21.6z"/>
	<path d="M18.3,13.6h2.1c0.1,0,0.2,0.1,0.2,0.2v0.8h-0.7c-0.1,0-0.2,0.1-0.2,0.2v0.6c0,0.1,0,0.1,0.1,0.1l1.3,1c0.1,0,0.2,0,0.2,0
		l1.3-1c0,0,0.1-0.1,0.1-0.1v-0.6c0-0.1-0.1-0.2-0.2-0.2c0,0,0,0,0,0h-0.7v-0.8c0-0.8-0.6-1.4-1.4-1.4h-2.1c-0.1,0-0.2,0.1-0.2,0.2
		l0,0v0.8C18.1,13.5,18.2,13.6,18.3,13.6z M18.5,12.8h2c0.6,0,1,0.5,1,1v1c0,0.1,0.1,0.2,0.2,0.2c0,0,0,0,0,0h0.7v0.3l-1.1,0.9
		l-1.1-0.9V15h0.7c0.1,0,0.2-0.1,0.2-0.2c0,0,0,0,0,0l0,0v-1c0-0.3-0.3-0.6-0.6-0.6l0,0h-2V12.8z"/>
	<path d="M17.3,22h-2.1c-0.1,0-0.2-0.1-0.2-0.2V21h0.7c0.1,0,0.2-0.1,0.2-0.2c0,0,0,0,0,0v-0.6c0-0.1,0-0.1-0.1-0.1l-1.3-1
		c-0.1-0.1-0.2-0.1-0.2,0l-1.3,1c0,0-0.1,0.1-0.1,0.1v0.6c0,0.1,0.1,0.2,0.2,0.2h0.7v0.8c0,0.8,0.6,1.4,1.4,1.4h2.1
		c0.1,0,0.2-0.1,0.2-0.2l0,0l0,0v-0.8C17.5,22.1,17.4,22,17.3,22L17.3,22z M17.2,22.8h-2c-0.6,0-1-0.5-1-1v-1c0-0.1-0.1-0.2-0.2-0.2
		c0,0,0,0,0,0h-0.7v-0.3l1.1-0.9l1.1,0.9v0.3h-0.7c-0.1,0-0.2,0.1-0.2,0.2l0,0v0.9c0,0.3,0.3,0.6,0.6,0.6h2L17.2,22.8z"/>
</g>
</svg>
