<?xml version="1.0" encoding="utf-8"?>
<!-- Generator: Adobe Illustrator 25.0.0, SVG Export Plug-In . SVG Version: 6.00 Build 0)  -->
<svg version="1.1" id="Shape" xmlns="http://www.w3.org/2000/svg" xmlns:xlink="http://www.w3.org/1999/xlink" x="0px" y="0px"
	 viewBox="0 0 39.8 35.7" style="enable-background:new 0 0 39.8 35.7;" xml:space="preserve">
<style type="text/css">
	.st0{stroke:#000000;stroke-width:5.000000e-02;stroke-miterlimit:10;}
</style>
<g>
	<path d="M28.4,17.5h-0.9c-0.1,0-0.2,0-0.3,0.1l-0.5,0.7c-0.1,0.2-0.1,0.4,0.1,0.5c0,0,0,0,0,0c0.1,0.1,0.4,0.1,0.5-0.1c0,0,0,0,0,0
		l0.4-0.5h0.7c0.2,0,0.3-0.2,0.3-0.3C28.8,17.7,28.6,17.5,28.4,17.5C28.4,17.5,28.4,17.5,28.4,17.5z"/>
	<path class="st0" d="M25.6,20.3c-0.1-0.1-0.4-0.1-0.5,0.1c0,0,0,0,0,0L24.6,21h-1.5l-1.2-4.1c0.5-0.2,0.7-0.7,0.5-1.2
		c-0.1-0.4-0.5-0.6-0.9-0.6h-0.2l-0.2-0.9C21,14.1,20.8,14,20.7,14c-0.2,0.1-0.2,0.2-0.2,0.4l0.2,0.7h-0.2l-1.3-1.2l0.1-0.1
		c0.8-0.5,0.9-1.6,0.4-2.3c-0.5-0.8-1.6-0.9-2.3-0.4c-0.8,0.5-0.9,1.6-0.4,2.3c0.1,0.1,0.1,0.1,0.2,0.2c-0.1,0-0.2,0.1-0.3,0.2
		c-0.2-0.3-0.5-0.6-0.9-0.7c-0.3-0.1-0.6,0-0.9,0.2c-0.3,0.2-0.4,0.5-0.5,0.8c0,0.2,0,0.4,0,0.6c0,0,0,0,0,0
		c-0.1,0.1-0.1,0.1-0.1,0.2L14,17.7c-0.1,0.5,0.2,1,0.7,1.1c0,0,0,0,0,0l0.6,0.1h0.2h0.1l-0.1,1.6l-0.8,1.7
		c-0.1,0.2-0.1,0.3-0.1,0.5c0,0.2,0,0.3,0.1,0.5h-0.4c-0.1,0-0.1,0-0.2,0.1l-2.8,1.8c-0.2,0.1-0.2,0.3-0.1,0.5c0,0,0,0,0,0
		c0.1,0.1,0.2,0.2,0.3,0.2c0.1,0,0.1,0,0.2-0.1l2.7-1.7h5.1c0.1,0,0.2,0,0.2-0.1l2.3-2.2h2.8c0.1,0,0.2,0,0.3-0.1l0.6-0.8
		C25.8,20.7,25.8,20.5,25.6,20.3C25.6,20.4,25.6,20.3,25.6,20.3z M17,19.1c-0.1,0-0.3,0-0.4-0.1c-0.2-0.1-0.3-0.4-0.3-0.6
		c0-0.1,0-0.1,0-0.2c0.8,0,1.5-0.2,2.2-0.6L18.4,18c0,0.2,0,0.3,0.2,0.4l1.2,0.6l1.4,1.8c0.2,0.2,0.1,0.5-0.1,0.7
		c-0.2,0.2-0.5,0.1-0.7-0.1l-1.2-1.6c0,0-0.1-0.1-0.1-0.1L18,19.3l-0.1,0L17,19.1z M21.8,20.4l-1.5-1.9c0,0-0.1-0.1-0.1-0.1l0,0
		l-1.1-0.5l0.2-0.9h1.9l1.2,4.1H22C22,20.8,21.9,20.6,21.8,20.4z M20.3,15.8h1.2c0.1,0,0.2,0.1,0.2,0.2c0,0.1-0.1,0.2-0.2,0.2h-2.5
		l-0.7-0.6c-0.1-0.1-0.4-0.1-0.5,0.1c-0.1,0.1-0.1,0.3,0,0.5l0.5,0.5c-0.6,0.5-1.3,0.8-2.1,0.8l0.1-0.7l0.2-1.4l0,0l0.1-0.4
		c0.1-0.5,0.6-0.9,1.2-0.8h0.1c0.2,0,0.4,0.1,0.6,0.2l0,0l1.4,1.3C20.2,15.7,20.2,15.8,20.3,15.8z M17.3,12.3c0.1-0.5,0.5-0.8,1-0.8
		c0.1,0,0.1,0,0.2,0c0.5,0.1,0.9,0.6,0.8,1.1c-0.1,0.5-0.5,0.8-1,0.8c-0.1,0-0.1,0-0.2,0C17.6,13.3,17.2,12.8,17.3,12.3z M15.3,14.2
		c0-0.1,0.1-0.3,0.2-0.3c0.1-0.1,0.2-0.1,0.3-0.1h0.1c0.3,0.1,0.5,0.3,0.4,0.6c0,0.1-0.1,0.2-0.2,0.3c-0.1,0.1-0.2,0.1-0.4,0.1
		C15.4,14.7,15.2,14.5,15.3,14.2z M15.4,18.2l-0.6-0.1c-0.1,0-0.2-0.2-0.2-0.3c0,0,0,0,0,0l0.4-2.4l1,0.2l-0.2,1L15.6,18
		C15.6,18.2,15.5,18.2,15.4,18.2L15.4,18.2z M15.5,23.2c-0.2-0.1-0.3-0.3-0.3-0.4c0-0.1,0-0.2,0-0.2l0.9-1.8c0,0,0-0.1,0-0.1
		l0.1-1.1c0.3,0.1,0.6,0.2,0.9,0.2l0.2,0l-0.1,1.1l-1,2.1c-0.1,0.2-0.2,0.3-0.4,0.3h-0.1C15.6,23.3,15.5,23.3,15.5,23.2z M19.3,23.3
		h-2.5l1-2.1v0c0,0,0-0.1,0-0.1l0.1-1.1l0.8,0.4l1.2,1.5c0.1,0.2,0.3,0.3,0.5,0.4L19.3,23.3z"/>
	<path d="M24.5,13.3h1.8c0.7,0,1.3-0.6,1.3-1.3s-0.6-1.3-1.3-1.3c-0.2,0-0.3,0-0.5,0.1c-0.5-0.7-1.5-0.8-2.2-0.2
		c-0.7,0.5-0.8,1.5-0.2,2.2c0,0,0.1,0.1,0.1,0.1C23.7,13.1,24.1,13.3,24.5,13.3z M24.5,10.8c0.4,0,0.7,0.2,0.8,0.5
		c0,0.1,0.1,0.2,0.2,0.2c0.1,0,0.2,0,0.3-0.1c0.1-0.1,0.3-0.1,0.4-0.1c0.3,0,0.7,0.2,0.7,0.6s-0.2,0.7-0.6,0.7c0,0-0.1,0-0.1,0h-1.8
		c-0.2,0-0.5-0.1-0.6-0.3c-0.2-0.2-0.3-0.4-0.3-0.6C23.6,11.2,24,10.8,24.5,10.8C24.5,10.8,24.5,10.8,24.5,10.8z"/>
	<path d="M13.2,12.4c0.7,0,1.3-0.6,1.3-1.2c0-0.7-0.6-1.3-1.2-1.3s-1.3,0.6-1.3,1.2c0,0,0,0,0,0C11.9,11.9,12.5,12.4,13.2,12.4z
		 M12.8,10.8c0.2-0.2,0.6-0.2,0.8,0c0.1,0.1,0.2,0.3,0.2,0.4c0,0.3-0.2,0.6-0.5,0.6c-0.3,0-0.6-0.2-0.6-0.5c0,0,0-0.1,0-0.1
		C12.6,11,12.7,10.9,12.8,10.8z"/>
	<path d="M26.5,19.4c-0.1-0.2-0.3-0.3-0.4-0.2c-0.1,0-0.2,0.1-0.2,0.2c-0.1,0.2,0.1,0.4,0.2,0.4c0.1,0,0.2,0,0.3,0
		C26.5,19.7,26.5,19.6,26.5,19.4z"/>
</g>
</svg>
